<svg width="46" height="50" viewBox="0 0 46 50" fill="none" xmlns="http://www.w3.org/2000/svg">
<path d="M24.4838 6.74589C24.4837 5.87855 24.2874 5.02247 23.9094 4.24184C23.5314 3.4612 22.9816 2.77627 22.3012 2.23838C21.6207 1.7005 20.8274 1.32363 19.9806 1.13602C19.1338 0.948421 18.2555 0.954952 17.4116 1.15513C16.5677 1.35531 15.78 1.74393 15.1077 2.29188C14.4353 2.83982 13.8958 3.53285 13.5294 4.31903C13.1631 5.1052 12.9795 5.9641 12.9923 6.83134C13.0052 7.69858 13.2143 8.55166 13.6038 9.3266C12.9163 8.94383 12.1422 8.74344 11.3553 8.74451C8.60724 8.74451 6.3588 11.2053 6.3588 14.2407C6.34742 15.6665 6.86451 17.046 7.81029 18.113C7.46134 18.0316 7.10434 17.9897 6.74603 17.9881C3.57322 17.9881 1 21.1209 1 24.9833C1 28.8456 3.57322 31.9784 6.74603 31.9784C7.10852 31.9778 7.46977 31.9359 7.82278 31.8535C6.877 32.9206 6.35991 34.3 6.37129 35.7259C6.37129 38.7613 8.61973 41.2221 11.3678 41.2221C12.1547 41.2231 12.9288 41.0227 13.6163 40.64C13.222 41.415 13.0088 42.2694 12.9927 43.1388C12.9767 44.0082 13.1581 44.8699 13.5234 45.659C13.8886 46.4481 14.4282 47.144 15.1015 47.6942C15.7748 48.2445 16.5642 48.6348 17.4102 48.8357C18.2562 49.0366 19.1368 49.0429 19.9856 48.854C20.8344 48.6652 21.6292 48.2862 22.3103 47.7456C22.9913 47.205 23.5408 46.5168 23.9173 45.733C24.2938 44.9492 24.4875 44.0902 24.4838 43.2207C24.4838 43.1357 24.4838 43.0533 24.4838 42.9708V6.99572C24.4838 6.91327 24.4838 6.83083 24.4838 6.74589Z" stroke="#F05123" stroke-width="2" stroke-linejoin="bevel"/>
<path d="M14.8047 47.2829C15.8824 48.3606 17.344 48.966 18.8681 48.966C20.3922 48.966 21.8539 48.3606 22.9316 47.2829C24.0093 46.2052 24.6147 44.7435 24.6147 43.2194C24.6147 41.6954 24.0093 40.2337 22.9316 39.156H19.7113" stroke="#F05123" stroke-width="2" stroke-miterlimit="10"/>
<path d="M14.5557 2.68373C15.637 1.62526 17.0922 1.03606 18.6053 1.04403C20.1185 1.05199 21.5674 1.6565 22.6375 2.72629C23.7076 3.79609 24.3126 5.24481 24.321 6.75794C24.3294 8.27107 23.7407 9.72645 22.6825 10.8081H19.9045" stroke="#F05123" stroke-width="2" stroke-miterlimit="10"/>
<path d="M24.4834 23.7341H18.2377L10.3057 31.169" stroke="#F05123" stroke-width="2" stroke-miterlimit="10"/>
<path d="M9.23633 21.6481L13.6033 27.8413" stroke="#F05123" stroke-width="2" stroke-miterlimit="10"/>
<path d="M13.6035 40.6399L16.6139 36.4753" stroke="#F05123" stroke-width="2" stroke-miterlimit="10"/>
<path d="M13.6035 9.36658L15.7395 12.7417V17.7383" stroke="#F05123" stroke-width="2" stroke-miterlimit="10"/>
<path d="M35.9756 24.9833H23.9839" stroke="#F05123" stroke-width="2" stroke-miterlimit="10"/>
<path d="M24.7339 32.728H30.7297L33.7277 38.1417" stroke="#F05123" stroke-width="2" stroke-miterlimit="10"/>
<path d="M24.7339 17.4885H30.7297L33.7277 12.0748" stroke="#F05123" stroke-width="2" stroke-miterlimit="10"/>
<path d="M40.7228 28.9804C42.9304 28.9804 44.7201 27.1908 44.7201 24.9832C44.7201 22.7756 42.9304 20.986 40.7228 20.986C38.5152 20.986 36.7256 22.7756 36.7256 24.9832C36.7256 27.1908 38.5152 28.9804 40.7228 28.9804Z" stroke="#F05123" stroke-width="2" stroke-miterlimit="10"/>
<path d="M35.2258 46.4684C37.4334 46.4684 39.223 44.6788 39.223 42.4712C39.223 40.2636 37.4334 38.4739 35.2258 38.4739C33.0181 38.4739 31.2285 40.2636 31.2285 42.4712C31.2285 44.6788 33.0181 46.4684 35.2258 46.4684Z" stroke="#F05123" stroke-width="2" stroke-miterlimit="10"/>
<path d="M35.2258 11.4926C37.4334 11.4926 39.223 9.70302 39.223 7.49541C39.223 5.28779 37.4334 3.49817 35.2258 3.49817C33.0181 3.49817 31.2285 5.28779 31.2285 7.49541C31.2285 9.70302 33.0181 11.4926 35.2258 11.4926Z" stroke="#F05123" stroke-width="2" stroke-miterlimit="10"/>
</svg>
