<svg width="65" height="52" viewBox="0 0 65 52" fill="none" xmlns="http://www.w3.org/2000/svg">
<path d="M0 7H52" stroke="#F05123" stroke-width="2"/>
<path d="M0 44.5H52" stroke="#F05123" stroke-width="2"/>
<path d="M8 0V51.5" stroke="#F05123" stroke-width="2"/>
<path d="M44 0V17" stroke="#F05123" stroke-width="2"/>
<path d="M44 34.5V51.5" stroke="#F05123" stroke-width="2"/>
<path d="M45.8958 22.0404C47.6286 24.069 48.8487 26.2557 49.5049 28.6156L63.4133 18.5234C64.5975 17.7793 65.3204 17.0963 64.7667 15.4958C64.4335 14.9912 64.0387 14.6803 63.5825 14.5579C63.1262 14.4356 62.6084 14.507 62.0342 14.772L45.8958 22.0404ZM25 37.4233C29.2038 35.5221 34.5508 39.4927 37.7754 35.3794C38.6315 34.2886 39.0929 32.6575 38.7956 31.2355C38.6777 30.6595 38.4367 30.1243 38.0625 29.6758C37.8933 29.477 37.7036 29.2935 37.4832 29.1253C34.7507 27.0355 31.1775 28.5136 28.9987 30.7105C26.9994 32.734 25.7536 35.5068 25 37.4233ZM39.098 27.7032C39.8926 28.3505 40.8821 29.7573 40.918 31.0927L48.3207 29.2068C47.5979 26.6124 46.4751 24.2933 44.6757 22.4533C41.9279 24.9304 42.1176 25.4299 39.098 27.7032Z" fill="#F05123"/>
<path d="M39 13H14V18.04H25.0294V31L29.4412 25.96V18.04H39V13Z" stroke="#F05123" stroke-width="2"/>
</svg>
