<svg width="50" height="50" viewBox="0 0 50 50" fill="none" xmlns="http://www.w3.org/2000/svg">
<path d="M24.5253 42.8687C26.7789 42.8687 28.6057 41.0418 28.6057 38.7882C28.6057 36.5346 26.7789 34.7078 24.5253 34.7078C22.2717 34.7078 20.4448 36.5346 20.4448 38.7882C20.4448 41.0418 22.2717 42.8687 24.5253 42.8687Z" stroke="#F05123" stroke-width="2.4" stroke-miterlimit="10"/>
<path d="M18.394 49C18.3997 47.3756 19.0475 45.8193 20.1961 44.6707C21.3447 43.5221 22.901 42.8743 24.5254 42.8687C26.1498 42.8743 27.7061 43.5221 28.8547 44.6707C30.0034 45.8193 30.6511 47.3756 30.6568 49" stroke="#F05123" stroke-width="2.4" stroke-miterlimit="10"/>
<path d="M40.8685 42.8687C43.1221 42.8687 44.949 41.0418 44.949 38.7882C44.949 36.5346 43.1221 34.7078 40.8685 34.7078C38.615 34.7078 36.7881 36.5346 36.7881 38.7882C36.7881 41.0418 38.615 42.8687 40.8685 42.8687Z" stroke="#F05123" stroke-width="2.4" stroke-miterlimit="10"/>
<path d="M34.7373 49C34.7429 47.3756 35.3907 45.8193 36.5394 44.6707C37.688 43.5221 39.2443 42.8743 40.8687 42.8687C42.4948 42.8687 44.0543 43.5146 45.2042 44.6645C46.354 45.8143 47 47.3739 47 49" stroke="#F05123" stroke-width="2.4" stroke-miterlimit="10"/>
<path d="M8.18251 42.8687C10.4361 42.8687 12.263 41.0418 12.263 38.7882C12.263 36.5346 10.4361 34.7078 8.18251 34.7078C5.92893 34.7078 4.10205 36.5346 4.10205 38.7882C4.10205 41.0418 5.92893 42.8687 8.18251 42.8687Z" stroke="#F05123" stroke-width="2.4" stroke-miterlimit="10"/>
<path d="M2.05078 49C2.05078 47.3739 2.69676 45.8143 3.84662 44.6645C4.99647 43.5146 6.55601 42.8687 8.18215 42.8687C9.80655 42.8743 11.3628 43.5221 12.5115 44.6707C13.6601 45.8193 14.3079 47.3756 14.3135 49" stroke="#F05123" stroke-width="2.4" stroke-miterlimit="10"/>
<path d="M42.9195 2H6.13135V28.555H42.9195V2Z" stroke="#F05123" stroke-width="2.4" stroke-miterlimit="10"/>
<path d="M28.606 15.2882L22.4746 18.3432V12.2118L28.606 15.2882Z" stroke="#F05123" stroke-width="2.4" stroke-miterlimit="10"/>
<path d="M0 2H49.0509" stroke="#F05123" stroke-width="2.4" stroke-miterlimit="10"/>
</svg>
