<svg width="100" height="100" viewBox="0 0 100 100" fill="none" xmlns="http://www.w3.org/2000/svg">
<rect width="100" height="100" fill="#D9D9D9" fill-opacity="0.01"/>
<path d="M49.7149 54.0244C49.7476 53.9238 49.7898 53.8868 49.8183 53.8674C49.8576 53.8406 49.9207 53.8172 50.0002 53.8172C50.0797 53.8172 50.1427 53.8406 50.1821 53.8674C50.2106 53.8868 50.2528 53.9238 50.2855 54.0244L52.2358 60.0268C52.7311 61.5513 54.1518 62.5835 55.7547 62.5835H62.066C62.1718 62.5835 62.22 62.6122 62.2473 62.6333C62.285 62.6624 62.3267 62.7152 62.3513 62.7908C62.3759 62.8664 62.3731 62.9336 62.3597 62.9793C62.3501 63.0124 62.328 63.064 62.2423 63.1262L57.1364 66.8359C55.8396 67.778 55.297 69.4481 55.7923 70.9726L57.7426 76.975C57.7753 77.0757 57.7629 77.1304 57.7512 77.1628C57.7352 77.2076 57.6979 77.2637 57.6336 77.3104C57.5693 77.3571 57.5045 77.3752 57.4569 77.3767C57.4224 77.3777 57.3666 77.3726 57.2809 77.3104L52.175 73.6007C50.8782 72.6585 49.1222 72.6585 47.8254 73.6007L42.7194 77.3104C42.6338 77.3726 42.5779 77.3777 42.5434 77.3767C42.4959 77.3752 42.4311 77.3571 42.3668 77.3104C42.3025 77.2637 42.2652 77.2076 42.2492 77.1628C42.2375 77.1304 42.2251 77.0757 42.2578 76.975L44.2081 70.9726C44.7034 69.4481 44.1608 67.778 42.864 66.8359L37.758 63.1262C37.6724 63.064 37.6503 63.0124 37.6406 62.9793C37.6273 62.9336 37.6245 62.8664 37.6491 62.7908C37.6736 62.7152 37.7154 62.6624 37.753 62.6333C37.7803 62.6122 37.8285 62.5835 37.9344 62.5835H44.2457C45.8486 62.5835 47.2692 61.5513 47.7646 60.0268L49.7149 54.0244Z" stroke="#F05123" stroke-width="3.4"/>
<path d="M87.7605 36.1692L86.1437 35.6439L87.7605 36.1692L88.0322 35.333C88.0649 35.2324 88.1071 35.1954 88.1356 35.176C88.1749 35.1492 88.238 35.1257 88.3175 35.1257C88.397 35.1257 88.4601 35.1492 88.4994 35.176C88.5279 35.1954 88.5701 35.2324 88.6028 35.333L90.2196 34.8077L88.6028 35.333L88.8745 36.1692C89.3698 37.6937 90.7905 38.7258 92.3934 38.7258H93.2726C93.3785 38.7258 93.4266 38.7546 93.4539 38.7757C93.4916 38.8048 93.5334 38.8575 93.5579 38.9331C93.5825 39.0087 93.5797 39.076 93.5663 39.1216C93.5567 39.1548 93.5346 39.2063 93.4489 39.2685L92.7377 39.7853C91.4409 40.7275 90.8982 42.3976 91.3936 43.9221L91.6652 44.7582C91.6979 44.8589 91.6855 44.9136 91.6739 44.9461C91.6578 44.9909 91.6206 45.0469 91.5563 45.0936C91.4919 45.1404 91.4271 45.1585 91.3796 45.1599C91.3451 45.1609 91.2892 45.1558 91.2036 45.0936L90.4923 44.5768C89.1955 43.6347 87.4395 43.6347 86.1427 44.5769L85.4314 45.0936C85.3458 45.1558 85.2899 45.1609 85.2554 45.1599C85.2078 45.1585 85.1431 45.1404 85.0787 45.0936C85.0144 45.0469 84.9772 44.9909 84.9611 44.9461C84.9495 44.9136 84.937 44.8589 84.9698 44.7582L85.2414 43.9221C85.7368 42.3976 85.1941 40.7275 83.8973 39.7853L83.1861 39.2686C83.1004 39.2063 83.0783 39.1548 83.0687 39.1216C83.0553 39.076 83.0525 39.0087 83.0771 38.9331C83.1016 38.8575 83.1434 38.8048 83.1811 38.7757C83.2083 38.7546 83.2565 38.7258 83.3624 38.7258H84.2416C85.8445 38.7258 87.2652 37.6937 87.7605 36.1692Z" stroke="#F05123" stroke-width="3.4"/>
<path d="M11.1252 35.2341L9.50844 34.7088L11.1252 35.2341L11.3969 34.398C11.4296 34.2973 11.4719 34.2604 11.5004 34.2409C11.5397 34.2141 11.6027 34.1907 11.6822 34.1907C11.7617 34.1907 11.8248 34.2141 11.8641 34.2409C11.8926 34.2604 11.9349 34.2973 11.9676 34.398L13.5844 33.8727L11.9676 34.398L12.2392 35.2341C12.7346 36.7586 14.1552 37.7908 15.7582 37.7908H16.6373C16.7432 37.7908 16.7914 37.8195 16.8187 37.8406C16.8563 37.8697 16.8981 37.9225 16.9227 37.9981C16.9472 38.0737 16.9444 38.1409 16.9311 38.1866C16.9214 38.2197 16.8993 38.2713 16.8137 38.3335L16.1024 38.8503C14.8056 39.7925 14.263 41.4625 14.7583 42.987L15.03 43.8232C15.0627 43.9238 15.0503 43.9785 15.0386 44.011C15.0226 44.0558 14.9853 44.1118 14.921 44.1586C14.8567 44.2053 14.7919 44.2234 14.7443 44.2248C14.7098 44.2259 14.654 44.2208 14.5683 44.1586L13.857 43.6418C12.5602 42.6996 10.8042 42.6996 9.50744 43.6418L8.79616 44.1586C8.71052 44.2208 8.65464 44.2259 8.62016 44.2248C8.57259 44.2234 8.5078 44.2053 8.44348 44.1586C8.37917 44.1118 8.34193 44.0558 8.32587 44.011C8.31423 43.9785 8.30179 43.9238 8.3345 43.8232L8.60619 42.987C9.10152 41.4625 8.55889 39.7925 7.26208 38.8503L6.5508 38.3335C6.46517 38.2713 6.44307 38.2197 6.4334 38.1866C6.42006 38.1409 6.41725 38.0737 6.44182 37.9981C6.46639 37.9225 6.50816 37.8697 6.54581 37.8406C6.57309 37.8195 6.62129 37.7908 6.72714 37.7908H7.60633C9.20927 37.7908 10.6299 36.7586 11.1252 35.2341Z" stroke="#F05123" stroke-width="3.4"/>
<path d="M24.7666 67.271C24.9224 68.3613 25.7012 70.542 27.5703 70.542H36.9161" stroke="#F05123" stroke-width="3.4"/>
<path d="M74.7666 67.271C74.6108 68.3613 73.832 70.542 71.9629 70.542H62.6171" stroke="#F05123" stroke-width="3.4"/>
<path d="M30.374 47.1773C30.9971 45.3082 33.832 41.1026 40.1871 39.2334" stroke="#F05123" stroke-width="3.4"/>
<path d="M69.626 47.1773C69.0029 45.3082 66.168 41.1026 59.8129 39.2334" stroke="#F05123" stroke-width="3.4"/>
<path d="M75.4155 49.3511C75.4482 49.2504 75.4904 49.2135 75.5189 49.1941C75.5583 49.1673 75.6213 49.1438 75.7008 49.1438C75.7803 49.1438 75.8434 49.1673 75.8827 49.1941C75.9112 49.2135 75.9534 49.2504 75.9861 49.3511L76.7824 51.8017L78.3992 51.2764L76.7824 51.8017C77.2777 53.3262 78.6984 54.3584 80.3013 54.3584H82.878C82.9839 54.3584 83.0321 54.3871 83.0594 54.4082C83.097 54.4373 83.1388 54.49 83.1633 54.5657C83.1879 54.6413 83.1851 54.7085 83.1718 54.7542C83.1621 54.7873 83.14 54.8388 83.0544 54.9011L80.9697 56.4156C79.6729 57.3578 79.1303 59.0279 79.6256 60.5523L80.4219 63.003C80.4546 63.1036 80.4422 63.1583 80.4305 63.1908C80.4145 63.2356 80.3772 63.2916 80.3129 63.3384C80.2486 63.3851 80.1838 63.4032 80.1362 63.4046C80.1018 63.4057 80.0459 63.4006 79.9602 63.3384L77.8756 61.8238C76.5788 60.8816 74.8228 60.8816 73.526 61.8238L71.4414 63.3384C71.3558 63.4006 71.2999 63.4057 71.2654 63.4046C71.2178 63.4032 71.153 63.3851 71.0887 63.3384C71.0244 63.2916 70.9872 63.2356 70.9711 63.1908C70.9595 63.1583 70.947 63.1036 70.9797 63.003L71.776 60.5523C72.2713 59.0279 71.7287 57.3578 70.4319 56.4156L68.3473 54.9011C68.2616 54.8388 68.2395 54.7873 68.2299 54.7542C68.2165 54.7085 68.2137 54.6413 68.2383 54.5657C68.2629 54.49 68.3046 54.4373 68.3423 54.4082C68.3696 54.3871 68.4178 54.3584 68.5236 54.3584H71.1003C72.7033 54.3584 74.1239 53.3262 74.6193 51.8017L75.4155 49.3511Z" stroke="#F05123" stroke-width="3.4"/>
<path d="M24.9487 49.3511C24.9814 49.2504 25.0236 49.2135 25.0521 49.1941C25.0915 49.1673 25.1545 49.1438 25.234 49.1438C25.3135 49.1438 25.3766 49.1673 25.4159 49.1941C25.4444 49.2135 25.4866 49.2504 25.5193 49.3511L26.3156 51.8017L27.9324 51.2764L26.3156 51.8017C26.8109 53.3262 28.2316 54.3584 29.8345 54.3584H32.4112C32.5171 54.3584 32.5653 54.3871 32.5926 54.4082C32.6302 54.4373 32.672 54.49 32.6965 54.5657C32.7211 54.6413 32.7183 54.7085 32.705 54.7542C32.6953 54.7873 32.6732 54.8388 32.5876 54.9011L30.5029 56.4156C29.2061 57.3578 28.6635 59.0279 29.1588 60.5523L29.9551 63.003C29.9878 63.1036 29.9754 63.1583 29.9637 63.1908C29.9477 63.2356 29.9104 63.2916 29.8461 63.3384C29.7818 63.3851 29.717 63.4032 29.6694 63.4046C29.635 63.4057 29.5791 63.4006 29.4934 63.3384L27.4088 61.8238C26.112 60.8816 24.356 60.8816 23.0592 61.8238L20.9746 63.3384C20.889 63.4006 20.8331 63.4057 20.7986 63.4046C20.751 63.4032 20.6862 63.3851 20.6219 63.3384C20.5576 63.2916 20.5204 63.2356 20.5043 63.1908C20.4927 63.1583 20.4802 63.1036 20.513 63.003L21.3092 60.5523C21.8045 59.0279 21.2619 57.3578 19.9651 56.4156L17.8805 54.9011C17.7949 54.8388 17.7727 54.7873 17.7631 54.7542C17.7497 54.7085 17.7469 54.6413 17.7715 54.5657C17.7961 54.49 17.8378 54.4373 17.8755 54.4082C17.9028 54.3871 17.951 54.3584 18.0568 54.3584H20.6335C22.2365 54.3584 23.6571 53.3262 24.1525 51.8017L24.9487 49.3511Z" stroke="#F05123" stroke-width="3.4"/>
<circle cx="50.0001" cy="26.6168" r="10.9168" stroke="#F05123" stroke-width="3.4"/>
</svg>
