<svg width="100" height="100" viewBox="0 0 100 100" fill="none" xmlns="http://www.w3.org/2000/svg">
<g clip-path="url(#clip0_38_747)">
<path fill-rule="evenodd" clip-rule="evenodd" d="M33.1424 0H66.8594C72.4596 0 77 4.84407 77 10.8053V89.1967C77 95.1618 72.4596 100 66.8594 100H33.1424C27.5422 100 23 95.1618 23 89.1967V10.7916C23 4.81277 27.5331 0 33.1424 0ZM33.0782 53.2653C32.3729 53.2653 31.7998 52.6548 31.7998 51.9036C31.7998 51.1523 32.3729 50.5439 33.0782 50.5439H66.9218C67.6271 50.5439 68.2002 51.1523 68.2002 51.9036C68.2002 52.6548 67.6271 53.2653 66.9218 53.2653H33.0782ZM33.0782 60.7114C32.3729 60.7114 31.7998 60.1009 31.7998 59.3497C31.7998 58.5984 32.3729 57.988 33.0782 57.988H60.9139C61.6192 57.988 62.1922 58.5984 62.1922 59.3497C62.1922 60.1009 61.6192 60.7114 60.9139 60.7114H33.0782ZM33.0782 75.5996C32.3729 75.5996 31.7998 74.9912 31.7998 74.2399C31.7998 73.4887 32.3729 72.8783 33.0782 72.8783H41.9698C42.6751 72.8783 43.2482 73.4887 43.2482 74.2399C43.2482 74.9912 42.6751 75.5996 41.9698 75.5996H33.0782ZM33.0782 68.1555C32.3729 68.1555 31.7998 67.5451 31.7998 66.7938C31.7998 66.0426 32.3729 65.4341 33.0782 65.4341H47.221C47.9263 65.4341 48.4994 66.0426 48.4994 66.7938C48.4994 67.5451 47.9263 68.1555 47.221 68.1555H33.0782ZM55.6186 75.5116C55.7252 75.611 55.8124 75.7318 55.8751 75.8672C55.9379 76.0025 55.9751 76.1496 55.9844 76.3002C55.9938 76.4509 55.9753 76.602 55.9298 76.7449C55.8844 76.8879 55.8129 77.0199 55.7196 77.1335C55.6262 77.247 55.5128 77.3399 55.3858 77.4067C55.2587 77.4736 55.1206 77.5132 54.9792 77.5232C54.8378 77.5332 54.6959 77.5134 54.5617 77.465C54.4275 77.4166 54.3036 77.3405 54.1969 77.2411L50.7935 74.0658C50.6868 73.9664 50.5996 73.8456 50.5369 73.7103C50.4741 73.5749 50.4369 73.4278 50.4275 73.2772C50.4182 73.1266 50.4367 72.9755 50.4822 72.8325C50.5276 72.6895 50.5991 72.5575 50.6924 72.4439L50.8008 72.3285L54.1969 69.1591C54.3037 69.0598 54.4277 68.9838 54.562 68.9356C54.6963 68.8873 54.8382 68.8677 54.9796 68.8779C55.121 68.8881 55.2591 68.9278 55.3861 68.9949C55.5131 69.0619 55.6264 69.155 55.7196 69.2687C55.9077 69.4982 56.0028 69.7978 55.9838 70.1019C55.9649 70.4059 55.8335 70.6895 55.6186 70.8906L53.1408 73.2011L55.6186 75.5116ZM63.7847 77.2411C63.6781 77.3405 63.5542 77.4167 63.4199 77.4651C63.2857 77.5135 63.1438 77.5333 63.0024 77.5233C62.861 77.5133 62.7229 77.4737 62.5958 77.4069C62.4688 77.34 62.3554 77.2471 62.262 77.1335C62.1687 77.0199 62.0972 76.8879 62.0518 76.7449C62.0063 76.602 61.9878 76.4509 61.9971 76.3002C62.0065 76.1496 62.0437 76.0025 62.1064 75.8671C62.1692 75.7318 62.2564 75.611 62.3631 75.5116L64.839 73.2011L62.3631 70.8906C62.2564 70.7911 62.1692 70.6703 62.1064 70.535C62.0437 70.3997 62.0065 70.2525 61.9971 70.1019C61.9878 69.9513 62.0063 69.8002 62.0518 69.6572C62.0972 69.5143 62.1687 69.3822 62.262 69.2687C62.6533 68.7894 63.3365 68.7424 63.7847 69.1591L67.179 72.3285L67.2892 72.4439C67.3824 72.5576 67.4538 72.6898 67.4991 72.8328C67.5444 72.9758 67.5628 73.127 67.5532 73.2776C67.5437 73.4282 67.5063 73.5753 67.4434 73.7106C67.3804 73.8458 67.2931 73.9665 67.1863 74.0658L63.7847 77.2411ZM58.7943 68.5037C58.9284 67.8855 59.5106 67.5001 60.0929 67.6429C60.6733 67.7877 61.0369 68.4079 60.901 69.0261L58.9559 77.8984C58.8902 78.1956 58.7167 78.4529 58.4734 78.6142C58.23 78.7755 57.9367 78.8277 57.6573 78.7592C57.0751 78.6145 56.7133 77.9943 56.8492 77.3761L58.7943 68.5037ZM64.7673 31.195C64.6186 31.0854 64.4624 31.0463 64.2916 31.0776C64.1208 31.1109 63.9831 31.2048 63.8802 31.3613L63.3237 32.2025C63.1216 32.1106 62.9122 32.0382 62.6955 31.9775C62.4806 31.9169 62.262 31.8719 62.0435 31.8367L61.8616 30.7352C61.8322 30.5494 61.7478 30.4046 61.6045 30.297C61.4612 30.1894 61.3051 30.1542 61.1306 30.1874L59.8302 30.4281C59.6649 30.4594 59.5308 30.5494 59.4261 30.702C59.3233 30.8546 59.2884 31.0228 59.3178 31.2087L59.4831 32.2162C59.2755 32.3121 59.0753 32.4197 58.8861 32.541C58.6951 32.6623 58.5188 32.7934 58.3516 32.9342L57.4773 32.2886C57.3378 32.1791 57.1835 32.138 57.0108 32.1693C56.84 32.2006 56.7059 32.2964 56.6012 32.451L55.85 33.5916C55.7471 33.7481 55.7104 33.9163 55.7398 34.0983C55.771 34.2783 55.8592 34.427 56.0061 34.5346L56.7959 35.1293C56.7096 35.3445 56.6416 35.5656 56.5847 35.7965C56.5278 36.0273 56.4855 36.2601 56.4524 36.4929L55.4184 36.6847C55.2439 36.716 55.1061 36.8079 55.0069 36.9605C54.9059 37.1112 54.8729 37.2794 54.9022 37.4653L55.13 38.8485C55.1594 39.0265 55.2439 39.1693 55.3871 39.2808C55.5304 39.3884 55.6865 39.4276 55.861 39.3943L56.8088 39.2182C56.8988 39.4412 56.9998 39.6525 57.1137 39.8541C57.2276 40.0575 57.3524 40.2512 57.4847 40.4371L56.8767 41.3566C56.7739 41.5053 56.7353 41.6676 56.7647 41.8515C56.7941 42.0335 56.8841 42.1783 57.0292 42.2898L58.1018 43.1017C58.2469 43.2034 58.4049 43.2367 58.5739 43.2054C58.7447 43.1741 58.8843 43.0841 58.9871 42.9374L59.5437 42.0824C59.7439 42.1724 59.9533 42.2467 60.17 42.3054C60.3867 42.3661 60.6035 42.413 60.822 42.4463L61.0039 43.5497C61.0333 43.7356 61.1196 43.8803 61.261 43.9879C61.4043 44.0936 61.5622 44.1308 61.7367 44.0975L63.0353 43.8569C63.2024 43.8256 63.3365 43.7356 63.4394 43.583C63.5422 43.4304 63.579 43.2621 63.5478 43.0763L63.3825 42.0668C63.5884 41.9745 63.7879 41.8666 63.9794 41.7439C64.1704 41.6207 64.3522 41.4896 64.5267 41.3468L65.39 41.9963C65.5296 42.1059 65.6839 42.147 65.8584 42.1137C66.0365 42.0804 66.1688 41.9865 66.2643 41.8339L67.0284 40.6914C67.1239 40.5349 67.1551 40.3686 67.1257 40.1866C67.0963 40.0047 67.0118 39.858 66.8741 39.7464L66.0696 39.1556C66.1559 38.9404 66.2239 38.7174 66.2808 38.4865C66.3378 38.2576 66.3818 38.0248 66.4131 37.792L67.449 37.6003C67.6235 37.567 67.7594 37.477 67.8604 37.3244C67.9596 37.1738 67.9945 37.0055 67.9633 36.8197L67.7374 35.4365C67.708 35.2584 67.6235 35.1156 67.4802 35.0041C67.3369 34.8946 67.179 34.8574 67.0045 34.8887L66.0567 35.0648C65.9678 34.849 65.8666 34.6393 65.7537 34.4367C65.638 34.2294 65.5149 34.0376 65.3827 33.8616L65.9906 32.9284C66.0935 32.7797 66.132 32.6153 66.1008 32.4314C66.0714 32.2514 65.9814 32.1067 65.8363 31.9951L64.7673 31.195ZM61.0535 34.8261C61.3529 34.7713 61.6449 34.7791 61.9314 34.8496C62.2161 34.9219 62.4751 35.0432 62.7047 35.2154C62.9343 35.3876 63.129 35.6047 63.2906 35.8669C63.4486 36.131 63.5551 36.4205 63.6065 36.7394C63.6598 37.0564 63.6525 37.3675 63.5863 37.6727C63.5184 37.9759 63.4027 38.2518 63.2429 38.4963C63.0769 38.7434 62.8688 38.9551 62.6294 39.1204C62.3833 39.2906 62.1114 39.4021 61.812 39.4569C61.5145 39.5136 61.2225 39.5058 60.9341 39.4354C60.6494 39.363 60.3922 39.2417 60.1608 39.0695C59.9312 38.8974 59.7365 38.6802 59.5767 38.418C59.4169 38.1539 59.3104 37.8644 59.259 37.5455C59.2076 37.2285 59.2149 36.9175 59.281 36.6123C59.349 36.3071 59.4629 36.0332 59.6245 35.7867C59.7861 35.5441 59.99 35.3367 60.2361 35.1645C60.4841 34.9943 60.7559 34.8828 61.0535 34.8261ZM51.0892 17.9442C51.0249 17.8757 50.9625 17.8268 50.9018 17.8014C50.8449 17.776 50.7751 17.7623 50.6943 17.7623C50.6135 17.7623 50.5418 17.776 50.4831 17.8014C50.4225 17.8288 50.36 17.8757 50.3012 17.9383L49.0522 19.2648C48.9529 19.3695 48.8221 19.4338 48.6828 19.4463C48.5435 19.4588 48.4044 19.4188 48.29 19.3333C48.1486 19.2374 47.9961 19.1435 47.8363 19.0496C47.6637 18.9518 47.4947 18.8618 47.3294 18.7815C47.1567 18.6955 46.9786 18.6172 46.8041 18.5448C46.6443 18.4783 46.4606 18.4098 46.2641 18.3394C46.1445 18.2976 46.0403 18.2167 45.9664 18.1082C45.8925 17.9996 45.8527 17.869 45.8527 17.7349V15.7041C45.8527 15.6141 45.8398 15.5359 45.8141 15.4674C45.7861 15.3983 45.7455 15.3357 45.6947 15.2835C45.6455 15.229 45.5869 15.1852 45.522 15.1544C45.4578 15.1289 45.3843 15.1152 45.2998 15.1152H42.9047C42.8276 15.1152 42.7596 15.127 42.7027 15.1524C42.6384 15.1818 42.5741 15.2267 42.5135 15.2913C42.4584 15.348 42.418 15.4087 42.3941 15.4733C42.3684 15.5378 42.3555 15.6161 42.3555 15.7041V17.5647C42.3555 17.8777 42.1424 18.1379 41.8633 18.1907C41.6722 18.2396 41.4978 18.2885 41.3416 18.3394C41.1653 18.3981 40.9871 18.4646 40.8127 18.537L40.7833 18.5487C40.6235 18.6133 40.4618 18.6876 40.2965 18.7698L40.2671 18.7815C40.1073 18.8618 39.9549 18.9439 39.808 19.0281C39.5729 19.165 39.2882 19.1141 39.1063 18.9244L37.7141 17.4629C37.6608 17.4023 37.6039 17.3573 37.5469 17.3318C37.4918 17.3064 37.4257 17.2927 37.3486 17.2927C37.2714 17.2927 37.2016 17.3084 37.1429 17.3338C37.0767 17.3631 37.0124 17.4121 36.95 17.4766L35.2786 19.2628C35.2161 19.3293 35.1702 19.3959 35.1445 19.4624C35.1206 19.525 35.1078 19.5993 35.1078 19.6854C35.1078 19.7715 35.1206 19.8478 35.1445 19.9104C35.172 19.975 35.2143 20.0395 35.2731 20.1021L36.5184 21.4325C36.7259 21.6555 36.748 21.9998 36.5827 22.2464C36.4927 22.395 36.4045 22.5574 36.3182 22.7296C36.2245 22.9135 36.14 23.0935 36.0647 23.2696C35.9054 23.6385 35.7674 24.0174 35.6514 24.4043C35.6121 24.5315 35.5361 24.6422 35.4341 24.7205C35.3322 24.7989 35.2096 24.8409 35.0839 24.8406L33.1755 24.8425C33.091 24.8425 33.0176 24.8562 32.9551 24.8836C32.8927 24.909 32.8339 24.9521 32.7806 25.0088C32.7255 25.0675 32.6869 25.1281 32.6612 25.1947C32.6355 25.2631 32.6227 25.3414 32.6227 25.4314V27.9825C32.6227 28.0647 32.6337 28.1371 32.6576 28.1978C32.6851 28.2662 32.7292 28.3327 32.788 28.3993C32.8431 28.456 32.9 28.499 32.9588 28.5264C33.0194 28.5519 33.0929 28.5656 33.1755 28.5656H34.9222C35.2161 28.5656 35.4622 28.7925 35.5118 29.0918C35.5559 29.2933 35.6037 29.4792 35.6514 29.6475C35.7065 29.8353 35.7671 30.0231 35.8351 30.2089L35.8498 30.2539C35.9086 30.4124 35.9784 30.5865 36.0555 30.7724C36.14 30.97 36.2227 31.1519 36.3016 31.3143C36.4247 31.5667 36.3733 31.866 36.1951 32.0578L34.8267 33.5094C34.7698 33.5681 34.7276 33.6268 34.7037 33.6874C34.6798 33.7481 34.6688 33.8185 34.6688 33.8987C34.6688 33.9829 34.6816 34.0552 34.7073 34.1179C34.7349 34.1883 34.7808 34.2587 34.8414 34.3233L36.5055 36.1173C36.5643 36.176 36.6286 36.221 36.691 36.2464C36.7553 36.2719 36.8288 36.2875 36.9133 36.2875C36.9978 36.2875 37.0749 36.2719 37.1392 36.2464L37.1576 36.2386C37.2127 36.2132 37.2659 36.174 37.3155 36.1232L38.5498 34.7889C38.7518 34.5698 39.0641 34.5404 39.2955 34.6989C39.4516 34.8046 39.6114 34.9063 39.7712 34.9982C39.9439 35.098 40.1129 35.1861 40.2782 35.2682C40.6256 35.4352 40.9812 35.5821 41.3435 35.7084C41.5951 35.7965 41.7549 36.0449 41.7549 36.3129V38.3437C41.7549 38.4337 41.7678 38.5139 41.7935 38.5804L41.8027 38.6039C41.8265 38.6587 41.8633 38.7115 41.9129 38.7643C41.9698 38.823 42.0286 38.868 42.0873 38.8935C42.1498 38.9208 42.2233 38.9345 42.3078 38.9345H44.7029C44.78 38.9345 44.848 38.9208 44.9049 38.8974C44.9692 38.868 45.0335 38.8211 45.0941 38.7585C45.1492 38.6998 45.1896 38.6391 45.2135 38.5746C45.2392 38.51 45.252 38.4337 45.252 38.3437V36.4832C45.252 36.1701 45.4651 35.9099 45.7443 35.8571C45.9371 35.8082 46.1135 35.7573 46.2733 35.7065C46.4533 35.6458 46.6296 35.5812 46.7967 35.5128C46.9639 35.4423 47.1402 35.3641 47.322 35.2761C47.5094 35.1861 47.6802 35.098 47.8308 35.0158C48.0678 34.8828 48.3506 34.9376 48.5288 35.1293L49.8935 36.5849C49.9449 36.6436 50 36.6866 50.0606 36.714L50.09 36.7297C50.1396 36.7473 50.1984 36.7551 50.2663 36.7551C50.3508 36.7551 50.4224 36.7414 50.4757 36.716C50.5363 36.6866 50.5914 36.6436 50.6429 36.5849L52.3418 34.7987C52.3969 34.7341 52.4373 34.6676 52.4612 34.6011C52.4869 34.5326 52.4998 34.4524 52.4998 34.3644C52.4998 34.2724 52.4869 34.1922 52.4612 34.1237L52.4539 34.1022C52.43 34.0455 52.3933 33.9868 52.3455 33.934L51.0929 32.6212C50.9954 32.5187 50.934 32.3837 50.9189 32.2387C50.9039 32.0937 50.9361 31.9476 51.0102 31.8249C51.1094 31.6606 51.2031 31.4904 51.2894 31.3182C51.3831 31.1343 51.4676 30.9543 51.5429 30.7802C51.6218 30.5944 51.6953 30.4065 51.7651 30.2187C51.8276 30.0485 51.8918 29.8548 51.958 29.6435C51.9972 29.5167 52.0729 29.4062 52.1745 29.3279C52.2761 29.2495 52.3983 29.2073 52.5237 29.2073H54.432C54.5165 29.2073 54.59 29.1916 54.6525 29.1662L54.6763 29.1564C54.7296 29.129 54.7792 29.0899 54.8269 29.039C54.882 28.9803 54.9224 28.9177 54.9482 28.8532C54.972 28.7866 54.9849 28.7064 54.9849 28.6164V26.0672C54.9849 25.9851 54.9739 25.9127 54.95 25.8501C54.9224 25.7816 54.8784 25.7151 54.8196 25.6486C54.7645 25.5918 54.7076 25.5488 54.6488 25.5233C54.5882 25.496 54.5147 25.4823 54.432 25.4823H52.6853C52.3859 25.4823 52.138 25.2475 52.0939 24.9423C52.0535 24.7701 52.0057 24.5901 51.9524 24.4082C51.901 24.2282 51.8404 24.0404 51.7706 23.8467L51.7596 23.8134C51.6935 23.6295 51.6255 23.4535 51.5539 23.2872C51.4749 23.1052 51.3941 22.9311 51.3096 22.7687C51.1829 22.5183 51.2306 22.215 51.4088 22.0214L52.7808 20.5384C52.8378 20.4817 52.88 20.421 52.9039 20.3604C52.9278 20.3017 52.9388 20.2312 52.9388 20.1491C52.9388 20.0669 52.9259 19.9926 52.902 19.93C52.8727 19.8595 52.8286 19.7891 52.768 19.7245L51.0892 17.9442ZM51.3647 16.6334C51.5759 16.7273 51.7669 16.8662 51.9341 17.0443L53.6165 18.8344C53.7818 19.0144 53.9104 19.2139 53.9986 19.433C54.0886 19.658 54.1345 19.8967 54.1345 20.1491C54.1345 20.4054 54.0867 20.646 53.9949 20.869C53.9049 21.0882 53.7727 21.2818 53.6055 21.454L52.5586 22.5848L52.6357 22.7609C52.7202 22.9565 52.7992 23.158 52.8727 23.3615L52.8855 23.3928C52.9571 23.5963 53.0269 23.8115 53.0912 24.0345L53.1408 24.2086H54.432C54.6708 24.2086 54.8949 24.2556 55.1061 24.3495C55.3157 24.4445 55.5055 24.5828 55.6645 24.7564L55.6773 24.7701C55.8408 24.9501 55.9657 25.1477 56.0502 25.3649C56.1365 25.5899 56.1806 25.8246 56.1806 26.0672V28.6164C56.1806 28.8708 56.1365 29.1075 56.052 29.3305C55.9633 29.5564 55.8342 29.7617 55.6718 29.935C55.5139 30.1013 55.3412 30.2285 55.152 30.3205L55.1006 30.3439C54.8931 30.4339 54.669 30.4789 54.432 30.4789H52.9461L52.8745 30.6765C52.7973 30.8878 52.7147 31.0991 52.6265 31.3065C52.5373 31.5145 52.4417 31.7194 52.34 31.9208L52.2647 32.0675L53.2069 33.0555C53.3557 33.2238 53.4714 33.4116 53.5522 33.6151L53.5724 33.662C53.6533 33.8831 53.6955 34.1179 53.6955 34.3644C53.6955 34.6089 53.6533 34.8417 53.5724 35.0628C53.4886 35.2857 53.3665 35.4901 53.2125 35.6654L51.5043 37.4633C51.3408 37.6472 51.1535 37.7881 50.9478 37.882C50.7329 37.9779 50.5069 38.0287 50.2663 38.0287C50.0496 38.0287 49.8439 37.9876 49.6492 37.9055L49.5886 37.882C49.3775 37.7837 49.1876 37.6405 49.0302 37.4614L47.9869 36.3482L47.8124 36.4342C47.6306 36.5223 47.4341 36.6103 47.2265 36.6944C47.0245 36.7786 46.8224 36.8529 46.6222 36.9194L46.4459 36.9723V38.3437C46.4481 38.5883 46.4039 38.8309 46.3158 39.0568C46.2277 39.2828 46.0977 39.4874 45.9335 39.6584L45.9206 39.6721C45.7516 39.8462 45.5643 39.9793 45.3622 40.0673C45.1492 40.1593 44.9306 40.2062 44.7029 40.2062H42.3078C42.0708 40.2062 41.8467 40.1612 41.6392 40.0712C41.425 39.978 41.2307 39.8396 41.068 39.6643C40.9181 39.5043 40.7968 39.3167 40.7098 39.1106L40.6878 39.0578C40.6033 38.8348 40.5592 38.598 40.5592 38.3437V36.761L40.3755 36.6866C40.1753 36.6045 39.9788 36.5145 39.7841 36.4206C39.5802 36.3208 39.3855 36.219 39.2073 36.1173L39.0696 36.0351L38.1402 37.0388C37.9841 37.1972 37.8078 37.3225 37.6167 37.4085L37.5727 37.4281C37.3627 37.5161 37.1389 37.5605 36.9133 37.5592C36.6837 37.5592 36.4651 37.5161 36.2576 37.4281C36.047 37.3403 35.8543 37.2101 35.69 37.0446L33.991 35.2134C33.8257 35.0335 33.6971 34.8339 33.609 34.6148C33.5184 34.3884 33.4722 34.1448 33.4731 33.8987C33.4731 33.6424 33.5208 33.4018 33.6127 33.1788C33.7047 32.9566 33.8384 32.7568 34.0057 32.5919L35.0508 31.4806L34.9682 31.2948C34.8965 31.1206 34.8194 30.9269 34.7422 30.7117L34.7257 30.6707C34.6486 30.4613 34.5769 30.2422 34.5127 30.0192L34.4631 29.8392H33.1755C32.9367 29.8392 32.7127 29.7922 32.5014 29.6983C32.2939 29.6064 32.1084 29.4694 31.9412 29.2914L31.9302 29.2796C31.7649 29.0977 31.6418 28.9001 31.5573 28.6829C31.471 28.458 31.4288 28.2251 31.4288 27.9825V25.4314C31.4288 25.1771 31.471 24.9384 31.5555 24.7173C31.6429 24.4913 31.7722 24.2863 31.9357 24.1147C32.1084 23.9308 32.2976 23.7958 32.5069 23.7039C32.7145 23.6139 32.9386 23.5689 33.1755 23.5689H34.6614L34.7331 23.3713C34.8094 23.1583 34.8927 22.9481 34.9829 22.7413C35.0747 22.5242 35.1702 22.3187 35.2676 22.127L35.3465 21.9764L34.4373 21.006C34.2709 20.8342 34.1385 20.6287 34.048 20.4015C33.9579 20.1749 33.9117 19.9314 33.912 19.6854C33.912 19.4369 33.958 19.1983 34.048 18.9713C34.1387 18.7452 34.2697 18.5399 34.4337 18.3668L36.1143 16.5728C36.2833 16.3967 36.4706 16.2597 36.6763 16.1658C36.8894 16.07 37.1135 16.0211 37.3486 16.0211C37.5892 16.0211 37.8151 16.07 38.0263 16.1697C38.2302 16.2656 38.4139 16.4045 38.5737 16.5845L39.6353 17.6977L39.7969 17.6155C39.9696 17.5314 40.1569 17.4473 40.3535 17.3651L40.3792 17.3534C40.5757 17.2712 40.7814 17.1969 40.9927 17.1284L41.1616 17.0756V15.7041C41.1594 15.4595 41.2037 15.2169 41.2918 14.991C41.3798 14.7651 41.5099 14.5604 41.6741 14.3894L41.6869 14.3757C41.8559 14.2016 42.0433 14.0705 42.2453 13.9805C42.4584 13.8886 42.6769 13.8416 42.9047 13.8416H45.2998C45.5367 13.8416 45.7608 13.8866 45.9684 13.9766C46.1833 14.0725 46.3724 14.2055 46.5396 14.3835C46.7067 14.5616 46.8335 14.765 46.9198 14.99C47.0043 15.2111 47.0484 15.4498 47.0484 15.7041V17.2868L47.232 17.3612C47.4304 17.4434 47.6306 17.5334 47.8235 17.6273C48.0273 17.727 48.222 17.8288 48.4002 17.9305L48.5416 18.0146L49.4545 17.0482C49.6216 16.8662 49.8127 16.7273 50.0202 16.6334C50.2351 16.5375 50.461 16.4886 50.6943 16.4886C50.9276 16.4886 51.1516 16.5356 51.3647 16.6334ZM45.8692 21.8316C46.5176 22.1309 47.0814 22.532 47.5498 23.0328L47.5847 23.072C48.0402 23.5669 48.4076 24.1539 48.6794 24.8249L48.6978 24.8797C48.9604 25.5625 49.0927 26.2961 49.0927 27.0239C49.0927 27.7693 48.9549 28.5206 48.6794 29.219V29.2249C48.402 29.9096 48.0218 30.5083 47.5498 31.013C47.0759 31.5178 46.5139 31.9208 45.8692 32.2162L45.8178 32.2377C44.5108 32.8059 43.0455 32.7982 41.7439 32.2162H41.7384C41.0937 31.9208 40.5316 31.5178 40.0596 31.015C39.5839 30.5083 39.2073 29.9096 38.9282 29.2249L38.9098 29.1701C38.6453 28.4853 38.5149 27.7517 38.5149 27.0239C38.5149 26.2785 38.6527 25.5273 38.9282 24.8288V24.8249C39.2073 24.1362 39.5857 23.5376 40.0578 23.0348C40.5261 22.532 41.09 22.1309 41.7384 21.8316L41.7898 21.812C42.4308 21.5303 43.1196 21.3894 43.8047 21.3894C44.5045 21.3894 45.208 21.5362 45.8637 21.8316H45.8692ZM46.7049 23.9328C46.3412 23.5454 45.9041 23.2324 45.3971 22.9996C44.8994 22.7746 44.3539 22.6631 43.8047 22.6631C43.2665 22.6631 42.7339 22.7687 42.2453 22.982L42.2104 22.9996C41.7035 23.2324 41.2663 23.5454 40.9027 23.9328C40.5371 24.3182 40.2451 24.7838 40.0247 25.3257C39.8135 25.8579 39.7088 26.4389 39.7088 27.0239C39.7088 27.5952 39.8098 28.1625 40.0082 28.6849L40.0247 28.7221C40.2451 29.264 40.5371 29.7296 40.899 30.115C41.2627 30.5024 41.7016 30.8154 42.2104 31.0482C42.7082 31.2732 43.2537 31.3847 43.8047 31.3847C44.341 31.3847 44.8737 31.2791 45.3622 31.0659L45.3971 31.0482C45.9059 30.8154 46.3449 30.5024 46.7049 30.117C47.0704 29.7296 47.3624 29.264 47.5829 28.7221C47.7922 28.1899 47.8988 27.6089 47.8988 27.0239C47.8988 26.4526 47.7978 25.8853 47.5976 25.3629L47.5829 25.3257C47.368 24.7995 47.0869 24.3436 46.738 23.9641L46.7049 23.9328ZM26.4935 84.9924H73.4918V10.7016H26.4935V84.9924ZM49.9871 88.373C52.2812 88.373 54.1565 90.3412 54.1565 92.8141C54.1565 95.2616 52.3106 97.2571 49.9871 97.2571C47.6931 97.2571 45.8159 95.2909 45.8159 92.8141C45.8159 90.3725 47.6637 88.373 49.9871 88.373Z" fill="#F05123"/>
</g>
<defs>
<clipPath id="clip0_38_747">
<rect width="54" height="100" fill="white" transform="translate(23)"/>
</clipPath>
</defs>
</svg>
