<svg width="100" height="100" viewBox="0 0 100 100" fill="none" xmlns="http://www.w3.org/2000/svg">
<mask id="path-1-outside-1_38_740" maskUnits="userSpaceOnUse" x="19.7466" y="12" width="80" height="77" fill="black">
<rect fill="white" x="19.7466" y="12" width="80" height="77"/>
<path d="M94.2635 54.4203L94.1507 54.2864C93.6122 53.6193 92.4343 52.6709 90.7163 52.0135L90.453 51.9332C88.6635 51.106 87.0421 50.5512 86.5667 50.395C86.1934 50.2719 85.8808 50.138 85.6313 50.0292C83.6574 49.0531 83.4341 48.4828 83.4022 48.3944L83.3125 48.1846L83.3883 47.9955C84.8553 46.1644 85.8858 44.0311 86.2784 42.0206L86.3362 41.884C86.7411 41.3663 87.0002 40.7613 87.1033 40.0946C87.5703 38.4031 87.5895 37.1604 87.1707 36.2892L87.1334 36.212L87.1526 36.1264C87.6734 33.9407 88.175 29.8463 85.6718 26.9896C85.2722 26.4869 83.7375 24.7885 80.7604 23.9146L79.3084 23.4161C76.9291 22.6815 75.4248 22.5048 75.1742 22.5006C75.0156 22.5006 74.8739 22.5199 74.6672 22.5654L74.4882 22.6013C74.3835 22.5847 74.2746 22.575 74.1522 22.575C73.3557 22.575 72.495 22.9257 72.495 22.9257C71.6559 23.2792 67.3939 25.2496 66.0424 29.4362C65.8179 30.0311 65.3602 31.8402 65.9527 35.7976L65.9677 35.8956L65.9057 35.9786C65.2983 36.7989 65.2471 38.1284 65.7529 39.9152C65.8853 40.7065 66.1428 41.3389 66.5216 41.815L66.5851 41.9489C66.9585 44.0215 67.8773 46.0637 69.2427 47.8585L69.3516 48.0036L69.2496 48.1487C69.1904 48.237 69.1492 48.3281 69.1338 48.3944C68.9244 48.9936 67.3223 49.9424 64.8383 50.9394C64.2832 50.7376 63.8975 50.6106 63.7608 50.5651C63.2581 50.3965 62.8378 50.2159 62.4975 50.0666C59.8703 48.7672 59.5246 48.0094 59.4723 47.8354L59.3345 47.5275L59.4557 47.2416C61.427 44.7797 62.8104 41.913 63.342 39.1998L63.4232 39.0135C63.9687 38.319 64.3175 37.5068 64.4483 36.6218C65.075 34.3585 65.1081 32.6933 64.5434 31.532L64.4814 31.4089L64.5145 31.2762C65.2159 28.3404 65.888 22.8478 62.5279 19.0216C61.9948 18.3518 59.9477 16.0735 55.947 14.8998L53.9923 14.2273C50.7292 13.2222 48.7041 13.0027 48.4412 13C48.2264 13 48.0404 13.0235 47.7691 13.0884L47.5073 13.1312C46.4245 12.9556 45.0938 13.4707 44.8528 13.5648C43.7257 14.0386 38.0129 16.6869 36.2014 22.3011C35.8996 23.0963 35.2879 25.5212 36.0828 30.8332L36.1063 30.9933L36.007 31.1261C35.1971 32.2114 35.1351 33.9858 35.8141 36.3814C35.9877 37.4362 36.3322 38.2785 36.8431 38.9236L36.9327 39.1126C37.4274 41.8937 38.6615 44.64 40.4996 47.0579L40.6716 47.2829L40.5076 47.5206C40.4276 47.6378 40.3741 47.7582 40.3618 47.8338C39.9056 49.136 34.821 51.4128 30.3657 52.7759C27.1585 53.9939 25.7507 55.967 25.7423 55.9794C21.3251 62.5519 20.7658 76.6623 20.7466 77.2684C20.8155 80.9388 22.4784 81.6842 22.7979 81.7919L23.0789 81.9149C32.8505 86.1887 47.1228 87.0213 48.7195 87.1028L49.2183 87.1178C49.6949 87.1178 50.1784 87.0916 50.6318 87.0669L50.6719 87.0653L50.8193 87.0765C50.9379 87.1054 51.0341 87.1209 51.1334 87.1209H51.1349L51.2023 87.1182C51.8482 87.085 67.1718 86.2123 76.7339 81.9111C77.2559 81.773 78.9423 81.0468 79.094 77.4787C82.5037 77.1832 90.6605 76.2414 96.2001 73.752C96.6105 73.6444 97.9539 73.0726 97.9993 70.1743C97.9366 69.0596 97.4035 59.1011 94.2635 54.4203ZM41.9581 49.3015L42.2241 49.0531L42.4885 49.3015C44.8278 51.5108 47.4192 52.7246 49.7777 52.7246C52.2559 52.7246 54.8142 51.6473 57.1754 49.6067L57.3751 49.4381L57.8929 49.6924C58.3336 50.094 59.1231 50.6712 59.4773 50.8452L59.965 51.084L59.9126 51.1338L60.1001 51.2469C60.5466 51.5108 61.0216 51.7689 61.5644 52.0393C62.1141 52.2836 62.5852 52.4672 63.0853 52.6331C63.183 52.6663 65.5169 53.4217 68.1768 54.656L68.6522 54.8038C71.1801 55.7691 72.2491 57.1291 72.2879 57.1758C76.2116 63.0138 76.8714 75.756 76.936 77.1809C76.9056 79.1721 76.3394 79.6883 76.1919 79.7879C67.3985 83.733 54.114 84.7589 51.5434 84.9232L51.4718 84.9275L51.3986 84.9055C51.312 84.8792 51.2235 84.8669 51.1134 84.8669H51.1107L51.0198 84.8711C50.3173 84.9194 49.7361 84.9429 49.1929 84.9429H48.7672C47.1663 84.8461 32.8416 83.9058 23.6736 79.8172C23.4889 79.74 22.9476 79.1131 22.9076 77.282C22.9092 77.1454 23.3803 63.3911 27.498 57.2603C27.6993 57.0061 28.8191 55.6985 31.0563 54.8424C33.0222 54.2362 37.8893 52.6192 40.5508 50.6874C40.6624 50.6199 40.7725 50.5065 40.891 50.3849C41.0858 50.1743 41.4908 49.7379 41.9581 49.3015ZM69.3536 52.7439L68.9898 52.6374C68.392 52.3611 67.7649 52.088 67.1163 51.8213C68.0325 51.3919 68.7819 50.9706 69.3386 50.5636C69.4282 50.5111 69.5176 50.42 69.6019 50.3317C69.8032 50.1148 70.0746 49.8235 70.3914 49.5268L70.5607 49.371L70.7232 49.5299C72.4742 51.1786 74.4082 52.0829 76.1677 52.0829C78.0219 52.0829 79.9328 51.2793 81.6919 49.7576L81.8174 49.6511L82.1727 49.8235C82.4964 50.126 83.0861 50.5512 83.3491 50.6824L83.6562 50.8286L83.6189 50.866L83.8118 50.9791C84.1466 51.1793 84.5046 51.3699 84.9057 51.5686C85.3176 51.7507 85.6675 51.8889 86.0382 52.0131C86.1098 52.0366 87.8305 52.5903 89.8198 53.514L90.1697 53.6216C91.9812 54.3161 92.7692 55.2691 92.845 55.3682C95.7725 59.7176 96.2452 69.1461 96.2879 70.1967C96.2671 71.6547 95.8637 72.0278 95.7629 72.0938C90.2552 74.5642 82.3475 75.4921 79.022 75.7846C78.7229 71.4571 77.6566 61.2652 74.0998 55.9643L73.9497 55.7834C73.2287 54.8925 71.6501 53.6251 69.3536 52.7439ZM67.2938 36.9945L67.3558 36.9212C67.6341 36.7167 67.7703 36.4007 67.718 36.0735C67.0567 32.0926 67.4866 30.4219 67.6341 30.0006C68.7873 26.456 72.4146 24.802 73.1279 24.5092C73.2711 24.454 73.5482 24.371 73.8415 24.3213L73.9297 24.3004L74.4767 24.2715L74.4809 24.3089L74.646 24.2939C74.7688 24.2842 74.887 24.2649 74.9698 24.2468L75.1545 24.2055C75.2716 24.2082 76.7043 24.3946 78.7806 25.0327L80.2449 25.5366C82.9037 26.3237 84.1355 27.7941 84.3626 28.0912C86.4994 30.5215 85.9262 34.1779 85.3931 36.1426C85.3326 36.3841 85.3696 36.6326 85.5074 36.8359L85.626 36.9891C85.7761 37.1909 85.9123 37.993 85.4497 39.7219C85.363 40.2466 85.1686 40.6679 84.8903 40.948C84.7776 41.0669 84.7017 41.2216 84.674 41.3983C83.9534 45.6416 80.1622 50.3845 76.1685 50.3845C72.7768 50.3845 68.9097 46.0185 68.2142 41.3983C68.1853 41.2227 68.111 41.0684 67.9882 40.9287C67.7045 40.6347 67.5213 40.2053 67.4081 39.5575C67.0736 38.356 67.0363 37.3853 67.2938 36.9945ZM37.7796 32.4213L37.872 32.3148C38.2304 32.0567 38.4036 31.6508 38.3378 31.231C37.4409 25.8349 38.0263 23.5897 38.2277 23.0261C39.7855 18.2333 44.6954 15.9925 45.6596 15.5947C45.8609 15.5175 46.2355 15.4041 46.6324 15.3393L46.7386 15.3146L47.5473 15.2702L47.55 15.3211L47.7236 15.3045C47.8849 15.2895 48.0431 15.2644 48.2279 15.2274L48.4127 15.1845C48.5628 15.1861 50.4586 15.4249 53.3171 16.3031L55.283 16.9809C58.876 18.0454 60.5497 20.0382 60.8569 20.4372C63.747 23.7248 62.9756 28.6722 62.2592 31.3306C62.1753 31.6373 62.2261 31.956 62.4012 32.2156L62.561 32.4213C62.8243 32.7747 62.9232 33.958 62.335 36.1495C62.2165 36.8648 61.9509 37.4447 61.5621 37.8298C61.42 37.9818 61.328 38.1805 61.288 38.4054C60.3099 44.1427 55.1795 50.5578 49.7765 50.5578C45.185 50.5578 39.9499 44.6535 39.0049 38.4093C38.9733 38.1844 38.8809 37.9814 38.7185 37.8043C38.3243 37.3969 38.0752 36.81 37.922 35.9373C37.467 34.2937 37.4201 32.9722 37.7796 32.4213Z"/>
</mask>
<path d="M94.2635 54.4203L94.1507 54.2864C93.6122 53.6193 92.4343 52.6709 90.7163 52.0135L90.453 51.9332C88.6635 51.106 87.0421 50.5512 86.5667 50.395C86.1934 50.2719 85.8808 50.138 85.6313 50.0292C83.6574 49.0531 83.4341 48.4828 83.4022 48.3944L83.3125 48.1846L83.3883 47.9955C84.8553 46.1644 85.8858 44.0311 86.2784 42.0206L86.3362 41.884C86.7411 41.3663 87.0002 40.7613 87.1033 40.0946C87.5703 38.4031 87.5895 37.1604 87.1707 36.2892L87.1334 36.212L87.1526 36.1264C87.6734 33.9407 88.175 29.8463 85.6718 26.9896C85.2722 26.4869 83.7375 24.7885 80.7604 23.9146L79.3084 23.4161C76.9291 22.6815 75.4248 22.5048 75.1742 22.5006C75.0156 22.5006 74.8739 22.5199 74.6672 22.5654L74.4882 22.6013C74.3835 22.5847 74.2746 22.575 74.1522 22.575C73.3557 22.575 72.495 22.9257 72.495 22.9257C71.6559 23.2792 67.3939 25.2496 66.0424 29.4362C65.8179 30.0311 65.3602 31.8402 65.9527 35.7976L65.9677 35.8956L65.9057 35.9786C65.2983 36.7989 65.2471 38.1284 65.7529 39.9152C65.8853 40.7065 66.1428 41.3389 66.5216 41.815L66.5851 41.9489C66.9585 44.0215 67.8773 46.0637 69.2427 47.8585L69.3516 48.0036L69.2496 48.1487C69.1904 48.237 69.1492 48.3281 69.1338 48.3944C68.9244 48.9936 67.3223 49.9424 64.8383 50.9394C64.2832 50.7376 63.8975 50.6106 63.7608 50.5651C63.2581 50.3965 62.8378 50.2159 62.4975 50.0666C59.8703 48.7672 59.5246 48.0094 59.4723 47.8354L59.3345 47.5275L59.4557 47.2416C61.427 44.7797 62.8104 41.913 63.342 39.1998L63.4232 39.0135C63.9687 38.319 64.3175 37.5068 64.4483 36.6218C65.075 34.3585 65.1081 32.6933 64.5434 31.532L64.4814 31.4089L64.5145 31.2762C65.2159 28.3404 65.888 22.8478 62.5279 19.0216C61.9948 18.3518 59.9477 16.0735 55.947 14.8998L53.9923 14.2273C50.7292 13.2222 48.7041 13.0027 48.4412 13C48.2264 13 48.0404 13.0235 47.7691 13.0884L47.5073 13.1312C46.4245 12.9556 45.0938 13.4707 44.8528 13.5648C43.7257 14.0386 38.0129 16.6869 36.2014 22.3011C35.8996 23.0963 35.2879 25.5212 36.0828 30.8332L36.1063 30.9933L36.007 31.1261C35.1971 32.2114 35.1351 33.9858 35.8141 36.3814C35.9877 37.4362 36.3322 38.2785 36.8431 38.9236L36.9327 39.1126C37.4274 41.8937 38.6615 44.64 40.4996 47.0579L40.6716 47.2829L40.5076 47.5206C40.4276 47.6378 40.3741 47.7582 40.3618 47.8338C39.9056 49.136 34.821 51.4128 30.3657 52.7759C27.1585 53.9939 25.7507 55.967 25.7423 55.9794C21.3251 62.5519 20.7658 76.6623 20.7466 77.2684C20.8155 80.9388 22.4784 81.6842 22.7979 81.7919L23.0789 81.9149C32.8505 86.1887 47.1228 87.0213 48.7195 87.1028L49.2183 87.1178C49.6949 87.1178 50.1784 87.0916 50.6318 87.0669L50.6719 87.0653L50.8193 87.0765C50.9379 87.1054 51.0341 87.1209 51.1334 87.1209H51.1349L51.2023 87.1182C51.8482 87.085 67.1718 86.2123 76.7339 81.9111C77.2559 81.773 78.9423 81.0468 79.094 77.4787C82.5037 77.1832 90.6605 76.2414 96.2001 73.752C96.6105 73.6444 97.9539 73.0726 97.9993 70.1743C97.9366 69.0596 97.4035 59.1011 94.2635 54.4203ZM41.9581 49.3015L42.2241 49.0531L42.4885 49.3015C44.8278 51.5108 47.4192 52.7246 49.7777 52.7246C52.2559 52.7246 54.8142 51.6473 57.1754 49.6067L57.3751 49.4381L57.8929 49.6924C58.3336 50.094 59.1231 50.6712 59.4773 50.8452L59.965 51.084L59.9126 51.1338L60.1001 51.2469C60.5466 51.5108 61.0216 51.7689 61.5644 52.0393C62.1141 52.2836 62.5852 52.4672 63.0853 52.6331C63.183 52.6663 65.5169 53.4217 68.1768 54.656L68.6522 54.8038C71.1801 55.7691 72.2491 57.1291 72.2879 57.1758C76.2116 63.0138 76.8714 75.756 76.936 77.1809C76.9056 79.1721 76.3394 79.6883 76.1919 79.7879C67.3985 83.733 54.114 84.7589 51.5434 84.9232L51.4718 84.9275L51.3986 84.9055C51.312 84.8792 51.2235 84.8669 51.1134 84.8669H51.1107L51.0198 84.8711C50.3173 84.9194 49.7361 84.9429 49.1929 84.9429H48.7672C47.1663 84.8461 32.8416 83.9058 23.6736 79.8172C23.4889 79.74 22.9476 79.1131 22.9076 77.282C22.9092 77.1454 23.3803 63.3911 27.498 57.2603C27.6993 57.0061 28.8191 55.6985 31.0563 54.8424C33.0222 54.2362 37.8893 52.6192 40.5508 50.6874C40.6624 50.6199 40.7725 50.5065 40.891 50.3849C41.0858 50.1743 41.4908 49.7379 41.9581 49.3015ZM69.3536 52.7439L68.9898 52.6374C68.392 52.3611 67.7649 52.088 67.1163 51.8213C68.0325 51.3919 68.7819 50.9706 69.3386 50.5636C69.4282 50.5111 69.5176 50.42 69.6019 50.3317C69.8032 50.1148 70.0746 49.8235 70.3914 49.5268L70.5607 49.371L70.7232 49.5299C72.4742 51.1786 74.4082 52.0829 76.1677 52.0829C78.0219 52.0829 79.9328 51.2793 81.6919 49.7576L81.8174 49.6511L82.1727 49.8235C82.4964 50.126 83.0861 50.5512 83.3491 50.6824L83.6562 50.8286L83.6189 50.866L83.8118 50.9791C84.1466 51.1793 84.5046 51.3699 84.9057 51.5686C85.3176 51.7507 85.6675 51.8889 86.0382 52.0131C86.1098 52.0366 87.8305 52.5903 89.8198 53.514L90.1697 53.6216C91.9812 54.3161 92.7692 55.2691 92.845 55.3682C95.7725 59.7176 96.2452 69.1461 96.2879 70.1967C96.2671 71.6547 95.8637 72.0278 95.7629 72.0938C90.2552 74.5642 82.3475 75.4921 79.022 75.7846C78.7229 71.4571 77.6566 61.2652 74.0998 55.9643L73.9497 55.7834C73.2287 54.8925 71.6501 53.6251 69.3536 52.7439ZM67.2938 36.9945L67.3558 36.9212C67.6341 36.7167 67.7703 36.4007 67.718 36.0735C67.0567 32.0926 67.4866 30.4219 67.6341 30.0006C68.7873 26.456 72.4146 24.802 73.1279 24.5092C73.2711 24.454 73.5482 24.371 73.8415 24.3213L73.9297 24.3004L74.4767 24.2715L74.4809 24.3089L74.646 24.2939C74.7688 24.2842 74.887 24.2649 74.9698 24.2468L75.1545 24.2055C75.2716 24.2082 76.7043 24.3946 78.7806 25.0327L80.2449 25.5366C82.9037 26.3237 84.1355 27.7941 84.3626 28.0912C86.4994 30.5215 85.9262 34.1779 85.3931 36.1426C85.3326 36.3841 85.3696 36.6326 85.5074 36.8359L85.626 36.9891C85.7761 37.1909 85.9123 37.993 85.4497 39.7219C85.363 40.2466 85.1686 40.6679 84.8903 40.948C84.7776 41.0669 84.7017 41.2216 84.674 41.3983C83.9534 45.6416 80.1622 50.3845 76.1685 50.3845C72.7768 50.3845 68.9097 46.0185 68.2142 41.3983C68.1853 41.2227 68.111 41.0684 67.9882 40.9287C67.7045 40.6347 67.5213 40.2053 67.4081 39.5575C67.0736 38.356 67.0363 37.3853 67.2938 36.9945ZM37.7796 32.4213L37.872 32.3148C38.2304 32.0567 38.4036 31.6508 38.3378 31.231C37.4409 25.8349 38.0263 23.5897 38.2277 23.0261C39.7855 18.2333 44.6954 15.9925 45.6596 15.5947C45.8609 15.5175 46.2355 15.4041 46.6324 15.3393L46.7386 15.3146L47.5473 15.2702L47.55 15.3211L47.7236 15.3045C47.8849 15.2895 48.0431 15.2644 48.2279 15.2274L48.4127 15.1845C48.5628 15.1861 50.4586 15.4249 53.3171 16.3031L55.283 16.9809C58.876 18.0454 60.5497 20.0382 60.8569 20.4372C63.747 23.7248 62.9756 28.6722 62.2592 31.3306C62.1753 31.6373 62.2261 31.956 62.4012 32.2156L62.561 32.4213C62.8243 32.7747 62.9232 33.958 62.335 36.1495C62.2165 36.8648 61.9509 37.4447 61.5621 37.8298C61.42 37.9818 61.328 38.1805 61.288 38.4054C60.3099 44.1427 55.1795 50.5578 49.7765 50.5578C45.185 50.5578 39.9499 44.6535 39.0049 38.4093C38.9733 38.1844 38.8809 37.9814 38.7185 37.8043C38.3243 37.3969 38.0752 36.81 37.922 35.9373C37.467 34.2937 37.4201 32.9722 37.7796 32.4213Z" fill="#F05123"/>
<path d="M94.2635 54.4203L94.1507 54.2864C93.6122 53.6193 92.4343 52.6709 90.7163 52.0135L90.453 51.9332C88.6635 51.106 87.0421 50.5512 86.5667 50.395C86.1934 50.2719 85.8808 50.138 85.6313 50.0292C83.6574 49.0531 83.4341 48.4828 83.4022 48.3944L83.3125 48.1846L83.3883 47.9955C84.8553 46.1644 85.8858 44.0311 86.2784 42.0206L86.3362 41.884C86.7411 41.3663 87.0002 40.7613 87.1033 40.0946C87.5703 38.4031 87.5895 37.1604 87.1707 36.2892L87.1334 36.212L87.1526 36.1264C87.6734 33.9407 88.175 29.8463 85.6718 26.9896C85.2722 26.4869 83.7375 24.7885 80.7604 23.9146L79.3084 23.4161C76.9291 22.6815 75.4248 22.5048 75.1742 22.5006C75.0156 22.5006 74.8739 22.5199 74.6672 22.5654L74.4882 22.6013C74.3835 22.5847 74.2746 22.575 74.1522 22.575C73.3557 22.575 72.495 22.9257 72.495 22.9257C71.6559 23.2792 67.3939 25.2496 66.0424 29.4362C65.8179 30.0311 65.3602 31.8402 65.9527 35.7976L65.9677 35.8956L65.9057 35.9786C65.2983 36.7989 65.2471 38.1284 65.7529 39.9152C65.8853 40.7065 66.1428 41.3389 66.5216 41.815L66.5851 41.9489C66.9585 44.0215 67.8773 46.0637 69.2427 47.8585L69.3516 48.0036L69.2496 48.1487C69.1904 48.237 69.1492 48.3281 69.1338 48.3944C68.9244 48.9936 67.3223 49.9424 64.8383 50.9394C64.2832 50.7376 63.8975 50.6106 63.7608 50.5651C63.2581 50.3965 62.8378 50.2159 62.4975 50.0666C59.8703 48.7672 59.5246 48.0094 59.4723 47.8354L59.3345 47.5275L59.4557 47.2416C61.427 44.7797 62.8104 41.913 63.342 39.1998L63.4232 39.0135C63.9687 38.319 64.3175 37.5068 64.4483 36.6218C65.075 34.3585 65.1081 32.6933 64.5434 31.532L64.4814 31.4089L64.5145 31.2762C65.2159 28.3404 65.888 22.8478 62.5279 19.0216C61.9948 18.3518 59.9477 16.0735 55.947 14.8998L53.9923 14.2273C50.7292 13.2222 48.7041 13.0027 48.4412 13C48.2264 13 48.0404 13.0235 47.7691 13.0884L47.5073 13.1312C46.4245 12.9556 45.0938 13.4707 44.8528 13.5648C43.7257 14.0386 38.0129 16.6869 36.2014 22.3011C35.8996 23.0963 35.2879 25.5212 36.0828 30.8332L36.1063 30.9933L36.007 31.1261C35.1971 32.2114 35.1351 33.9858 35.8141 36.3814C35.9877 37.4362 36.3322 38.2785 36.8431 38.9236L36.9327 39.1126C37.4274 41.8937 38.6615 44.64 40.4996 47.0579L40.6716 47.2829L40.5076 47.5206C40.4276 47.6378 40.3741 47.7582 40.3618 47.8338C39.9056 49.136 34.821 51.4128 30.3657 52.7759C27.1585 53.9939 25.7507 55.967 25.7423 55.9794C21.3251 62.5519 20.7658 76.6623 20.7466 77.2684C20.8155 80.9388 22.4784 81.6842 22.7979 81.7919L23.0789 81.9149C32.8505 86.1887 47.1228 87.0213 48.7195 87.1028L49.2183 87.1178C49.6949 87.1178 50.1784 87.0916 50.6318 87.0669L50.6719 87.0653L50.8193 87.0765C50.9379 87.1054 51.0341 87.1209 51.1334 87.1209H51.1349L51.2023 87.1182C51.8482 87.085 67.1718 86.2123 76.7339 81.9111C77.2559 81.773 78.9423 81.0468 79.094 77.4787C82.5037 77.1832 90.6605 76.2414 96.2001 73.752C96.6105 73.6444 97.9539 73.0726 97.9993 70.1743C97.9366 69.0596 97.4035 59.1011 94.2635 54.4203ZM41.9581 49.3015L42.2241 49.0531L42.4885 49.3015C44.8278 51.5108 47.4192 52.7246 49.7777 52.7246C52.2559 52.7246 54.8142 51.6473 57.1754 49.6067L57.3751 49.4381L57.8929 49.6924C58.3336 50.094 59.1231 50.6712 59.4773 50.8452L59.965 51.084L59.9126 51.1338L60.1001 51.2469C60.5466 51.5108 61.0216 51.7689 61.5644 52.0393C62.1141 52.2836 62.5852 52.4672 63.0853 52.6331C63.183 52.6663 65.5169 53.4217 68.1768 54.656L68.6522 54.8038C71.1801 55.7691 72.2491 57.1291 72.2879 57.1758C76.2116 63.0138 76.8714 75.756 76.936 77.1809C76.9056 79.1721 76.3394 79.6883 76.1919 79.7879C67.3985 83.733 54.114 84.7589 51.5434 84.9232L51.4718 84.9275L51.3986 84.9055C51.312 84.8792 51.2235 84.8669 51.1134 84.8669H51.1107L51.0198 84.8711C50.3173 84.9194 49.7361 84.9429 49.1929 84.9429H48.7672C47.1663 84.8461 32.8416 83.9058 23.6736 79.8172C23.4889 79.74 22.9476 79.1131 22.9076 77.282C22.9092 77.1454 23.3803 63.3911 27.498 57.2603C27.6993 57.0061 28.8191 55.6985 31.0563 54.8424C33.0222 54.2362 37.8893 52.6192 40.5508 50.6874C40.6624 50.6199 40.7725 50.5065 40.891 50.3849C41.0858 50.1743 41.4908 49.7379 41.9581 49.3015ZM69.3536 52.7439L68.9898 52.6374C68.392 52.3611 67.7649 52.088 67.1163 51.8213C68.0325 51.3919 68.7819 50.9706 69.3386 50.5636C69.4282 50.5111 69.5176 50.42 69.6019 50.3317C69.8032 50.1148 70.0746 49.8235 70.3914 49.5268L70.5607 49.371L70.7232 49.5299C72.4742 51.1786 74.4082 52.0829 76.1677 52.0829C78.0219 52.0829 79.9328 51.2793 81.6919 49.7576L81.8174 49.6511L82.1727 49.8235C82.4964 50.126 83.0861 50.5512 83.3491 50.6824L83.6562 50.8286L83.6189 50.866L83.8118 50.9791C84.1466 51.1793 84.5046 51.3699 84.9057 51.5686C85.3176 51.7507 85.6675 51.8889 86.0382 52.0131C86.1098 52.0366 87.8305 52.5903 89.8198 53.514L90.1697 53.6216C91.9812 54.3161 92.7692 55.2691 92.845 55.3682C95.7725 59.7176 96.2452 69.1461 96.2879 70.1967C96.2671 71.6547 95.8637 72.0278 95.7629 72.0938C90.2552 74.5642 82.3475 75.4921 79.022 75.7846C78.7229 71.4571 77.6566 61.2652 74.0998 55.9643L73.9497 55.7834C73.2287 54.8925 71.6501 53.6251 69.3536 52.7439ZM67.2938 36.9945L67.3558 36.9212C67.6341 36.7167 67.7703 36.4007 67.718 36.0735C67.0567 32.0926 67.4866 30.4219 67.6341 30.0006C68.7873 26.456 72.4146 24.802 73.1279 24.5092C73.2711 24.454 73.5482 24.371 73.8415 24.3213L73.9297 24.3004L74.4767 24.2715L74.4809 24.3089L74.646 24.2939C74.7688 24.2842 74.887 24.2649 74.9698 24.2468L75.1545 24.2055C75.2716 24.2082 76.7043 24.3946 78.7806 25.0327L80.2449 25.5366C82.9037 26.3237 84.1355 27.7941 84.3626 28.0912C86.4994 30.5215 85.9262 34.1779 85.3931 36.1426C85.3326 36.3841 85.3696 36.6326 85.5074 36.8359L85.626 36.9891C85.7761 37.1909 85.9123 37.993 85.4497 39.7219C85.363 40.2466 85.1686 40.6679 84.8903 40.948C84.7776 41.0669 84.7017 41.2216 84.674 41.3983C83.9534 45.6416 80.1622 50.3845 76.1685 50.3845C72.7768 50.3845 68.9097 46.0185 68.2142 41.3983C68.1853 41.2227 68.111 41.0684 67.9882 40.9287C67.7045 40.6347 67.5213 40.2053 67.4081 39.5575C67.0736 38.356 67.0363 37.3853 67.2938 36.9945ZM37.7796 32.4213L37.872 32.3148C38.2304 32.0567 38.4036 31.6508 38.3378 31.231C37.4409 25.8349 38.0263 23.5897 38.2277 23.0261C39.7855 18.2333 44.6954 15.9925 45.6596 15.5947C45.8609 15.5175 46.2355 15.4041 46.6324 15.3393L46.7386 15.3146L47.5473 15.2702L47.55 15.3211L47.7236 15.3045C47.8849 15.2895 48.0431 15.2644 48.2279 15.2274L48.4127 15.1845C48.5628 15.1861 50.4586 15.4249 53.3171 16.3031L55.283 16.9809C58.876 18.0454 60.5497 20.0382 60.8569 20.4372C63.747 23.7248 62.9756 28.6722 62.2592 31.3306C62.1753 31.6373 62.2261 31.956 62.4012 32.2156L62.561 32.4213C62.8243 32.7747 62.9232 33.958 62.335 36.1495C62.2165 36.8648 61.9509 37.4447 61.5621 37.8298C61.42 37.9818 61.328 38.1805 61.288 38.4054C60.3099 44.1427 55.1795 50.5578 49.7765 50.5578C45.185 50.5578 39.9499 44.6535 39.0049 38.4093C38.9733 38.1844 38.8809 37.9814 38.7185 37.8043C38.3243 37.3969 38.0752 36.81 37.922 35.9373C37.467 34.2937 37.4201 32.9722 37.7796 32.4213Z" stroke="#F05123" stroke-width="1.8" mask="url(#path-1-outside-1_38_740)"/>
<mask id="path-2-outside-2_38_740" maskUnits="userSpaceOnUse" x="1.25293" y="12" width="80" height="77" fill="black">
<rect fill="white" x="1.25293" y="12" width="80" height="77"/>
<path d="M6.73598 54.4203L6.84877 54.2864C7.38729 53.6193 8.56519 52.6709 10.2832 52.0135L10.5465 51.9332C12.336 51.106 13.9574 50.5512 14.4328 50.395C14.8062 50.2719 15.1187 50.138 15.3682 50.0292C17.3421 49.0531 17.5654 48.4828 17.5973 48.3944L17.687 48.1846L17.6112 47.9955C16.1442 46.1644 15.1137 44.0311 14.7211 42.0206L14.6633 41.884C14.2584 41.3663 13.9993 40.7613 13.8962 40.0946C13.4292 38.4031 13.41 37.1604 13.8288 36.2892L13.8661 36.212L13.8469 36.1264C13.3261 33.9407 12.8245 29.8463 15.3278 26.9896C15.7273 26.4869 17.262 24.7885 20.2391 23.9146L21.6911 23.4161C24.0704 22.6815 25.5747 22.5048 25.8253 22.5006C25.9839 22.5006 26.1256 22.5199 26.3323 22.5654L26.5113 22.6013C26.616 22.5847 26.7249 22.575 26.8473 22.575C27.6438 22.575 28.5045 22.9257 28.5045 22.9257C29.3436 23.2792 33.6057 25.2496 34.9572 29.4362C35.1816 30.0311 35.6393 31.8402 35.0468 35.7976L35.0318 35.8956L35.0938 35.9786C35.7012 36.7989 35.7524 38.1284 35.2466 39.9152C35.1142 40.7065 34.8567 41.3389 34.4779 41.815L34.4144 41.9489C34.041 44.0215 33.1222 46.0637 31.7568 47.8585L31.6479 48.0036L31.7499 48.1487C31.8092 48.237 31.8503 48.3281 31.8657 48.3944C32.0751 48.9936 33.6772 49.9424 36.1612 50.9394C36.7163 50.7376 37.102 50.6106 37.2387 50.5651C37.7414 50.3965 38.1618 50.2159 38.502 50.0666C41.1292 48.7672 41.4749 48.0094 41.5272 47.8354L41.6651 47.5275L41.5438 47.2416C39.5725 44.7797 38.1891 41.913 37.6575 39.1998L37.5763 39.0135C37.0308 38.319 36.6821 37.5068 36.5512 36.6218C35.9245 34.3585 35.8914 32.6933 36.4561 31.532L36.5181 31.4089L36.485 31.2762C35.7836 28.3404 35.1115 22.8478 38.4716 19.0216C39.0048 18.3518 41.0518 16.0735 45.0525 14.8998L47.0072 14.2273C50.2703 13.2222 52.2954 13.0027 52.5583 13C52.7731 13 52.9591 13.0235 53.2304 13.0884L53.4922 13.1312C54.575 12.9556 55.9057 13.4707 56.1467 13.5648C57.2738 14.0386 62.9866 16.6869 64.7981 22.3011C65.0999 23.0963 65.7116 25.5212 64.9167 30.8332L64.8932 30.9933L64.9925 31.1261C65.8024 32.2114 65.8644 33.9858 65.1854 36.3814C65.0118 37.4362 64.6673 38.2785 64.1565 38.9236L64.0668 39.1126C63.5721 41.8937 62.338 44.64 60.5 47.0579L60.3279 47.2829L60.4919 47.5206C60.5719 47.6378 60.6254 47.7582 60.6378 47.8338C61.0939 49.136 66.1785 51.4128 70.6338 52.7759C73.8411 53.9939 75.2488 55.967 75.2572 55.9794C79.6744 62.5519 80.2337 76.6623 80.2529 77.2684C80.184 80.9388 78.5211 81.6842 78.2016 81.7919L77.9206 81.9149C68.149 86.1887 53.8768 87.0213 52.28 87.1028L51.7812 87.1178C51.3046 87.1178 50.8211 87.0916 50.3677 87.0669L50.3276 87.0653L50.1802 87.0765C50.0617 87.1054 49.9654 87.1209 49.8661 87.1209H49.8646L49.7972 87.1182C49.1513 87.085 33.8278 86.2123 24.2656 81.9111C23.7436 81.773 22.0572 81.0468 21.9055 77.4787C18.4958 77.1832 10.339 76.2414 4.79937 73.752C4.38903 73.6444 3.0456 73.0726 3.00018 70.1743C3.06293 69.0596 3.59606 59.1011 6.73598 54.4203ZM59.0414 49.3015L58.7754 49.0531L58.511 49.3015C56.1717 51.5108 53.5803 52.7246 51.2218 52.7246C48.7436 52.7246 46.1853 51.6473 43.8242 49.6067L43.6244 49.4381L43.1066 49.6924C42.6659 50.094 41.8764 50.6712 41.5222 50.8452L41.0345 51.084L41.0869 51.1338L40.8994 51.2469C40.4529 51.5108 39.9779 51.7689 39.4351 52.0393C38.8854 52.2836 38.4143 52.4672 37.9142 52.6331C37.8165 52.6663 35.4826 53.4217 32.8227 54.656L32.3473 54.8038C29.8194 55.7691 28.7505 57.1291 28.7116 57.1758C24.7879 63.0138 24.1282 75.756 24.0635 77.1809C24.0939 79.1721 24.6601 79.6883 24.8076 79.7879C33.601 83.733 46.8855 84.7589 49.4562 84.9232L49.5277 84.9275L49.6009 84.9055C49.6875 84.8792 49.776 84.8669 49.8861 84.8669H49.8888L49.9797 84.8711C50.6822 84.9194 51.2634 84.9429 51.8066 84.9429H52.2323C53.8333 84.8461 68.1579 83.9058 77.3259 79.8172C77.5106 79.74 78.0519 79.1131 78.0919 77.282C78.0904 77.1454 77.6192 63.3911 73.5015 57.2603C73.3002 57.0061 72.1804 55.6985 69.9432 54.8424C67.9773 54.2362 63.1102 52.6192 60.4488 50.6874C60.3371 50.6199 60.227 50.5065 60.1085 50.3849C59.9137 50.1743 59.5087 49.7379 59.0414 49.3015ZM31.6459 52.7439L32.0097 52.6374C32.6075 52.3611 33.2346 52.088 33.8832 51.8213C32.967 51.3919 32.2176 50.9706 31.661 50.5636C31.5713 50.5111 31.482 50.42 31.3977 50.3317C31.1963 50.1148 30.925 49.8235 30.6082 49.5268L30.4388 49.371L30.2763 49.5299C28.5253 51.1786 26.5914 52.0829 24.8318 52.0829C22.9776 52.0829 21.0668 51.2793 19.3076 49.7576L19.1821 49.6511L18.8268 49.8235C18.5031 50.126 17.9134 50.5512 17.6505 50.6824L17.3433 50.8286L17.3806 50.866L17.1878 50.9791C16.8529 51.1793 16.4949 51.3699 16.0938 51.5686C15.6819 51.7507 15.332 51.8889 14.9613 52.0131C14.8897 52.0366 13.169 52.5903 11.1797 53.514L10.8298 53.6216C9.01826 54.3161 8.2303 55.2691 8.15447 55.3682C5.22704 59.7176 4.75433 69.1461 4.71161 70.1967C4.73239 71.6547 5.1358 72.0278 5.23666 72.0938C10.7443 74.5642 18.6521 75.4921 21.9775 75.7846C22.2766 71.4571 23.3429 61.2652 26.8997 55.9643L27.0498 55.7834C27.7708 54.8925 29.3494 53.6251 31.6459 52.7439ZM33.7057 36.9945L33.6438 36.9212C33.3655 36.7167 33.2292 36.4007 33.2815 36.0735C33.9429 32.0926 33.5129 30.4219 33.3655 30.0006C32.2122 26.456 28.5849 24.802 27.8716 24.5092C27.7285 24.454 27.4513 24.371 27.158 24.3213L27.0698 24.3004L26.5228 24.2715L26.5186 24.3089L26.3535 24.2939C26.2307 24.2842 26.1125 24.2649 26.0297 24.2468L25.845 24.2055C25.7279 24.2082 24.2952 24.3946 22.2189 25.0327L20.7546 25.5366C18.0958 26.3237 16.864 27.7941 16.6369 28.0912C14.5001 30.5215 15.0733 34.1779 15.6064 36.1426C15.6669 36.3841 15.6299 36.6326 15.4921 36.8359L15.3736 36.9891C15.2234 37.1909 15.0872 37.993 15.5499 39.7219C15.6365 40.2466 15.8309 40.6679 16.1092 40.948C16.222 41.0669 16.2978 41.2216 16.3255 41.3983C17.0461 45.6416 20.8373 50.3845 24.831 50.3845C28.2227 50.3845 32.0898 46.0185 32.7854 41.3983C32.8142 41.2227 32.8885 41.0684 33.0113 40.9287C33.295 40.6347 33.4782 40.2053 33.5914 39.5575C33.9259 38.356 33.9633 37.3853 33.7057 36.9945ZM63.2199 32.4213L63.1275 32.3148C62.7691 32.0567 62.5959 31.6508 62.6618 31.231C63.5587 25.8349 62.9732 23.5897 62.7718 23.0261C61.214 18.2333 56.3042 15.9925 55.3399 15.5947C55.1386 15.5175 54.764 15.4041 54.3672 15.3393L54.2609 15.3146L53.4522 15.2702L53.4495 15.3211L53.2759 15.3045C53.1146 15.2895 52.9564 15.2644 52.7716 15.2274L52.5868 15.1845C52.4367 15.1861 50.5409 15.4249 47.6824 16.3031L45.7165 16.9809C42.1235 18.0454 40.4498 20.0382 40.1426 20.4372C37.2525 23.7248 38.0239 28.6722 38.7403 31.3306C38.8242 31.6373 38.7734 31.956 38.5983 32.2156L38.4385 32.4213C38.1752 32.7747 38.0763 33.958 38.6645 36.1495C38.783 36.8648 39.0486 37.4447 39.4374 37.8298C39.5795 37.9818 39.6715 38.1805 39.7115 38.4054C40.6896 44.1427 45.82 50.5578 51.223 50.5578C55.8145 50.5578 61.0496 44.6535 61.9947 38.4093C62.0262 38.1844 62.1186 37.9814 62.2811 37.8043C62.6752 37.3969 62.9243 36.81 63.0775 35.9373C63.5325 34.2937 63.5794 32.9722 63.2199 32.4213Z"/>
</mask>
<path d="M6.73598 54.4203L6.84877 54.2864C7.38729 53.6193 8.56519 52.6709 10.2832 52.0135L10.5465 51.9332C12.336 51.106 13.9574 50.5512 14.4328 50.395C14.8062 50.2719 15.1187 50.138 15.3682 50.0292C17.3421 49.0531 17.5654 48.4828 17.5973 48.3944L17.687 48.1846L17.6112 47.9955C16.1442 46.1644 15.1137 44.0311 14.7211 42.0206L14.6633 41.884C14.2584 41.3663 13.9993 40.7613 13.8962 40.0946C13.4292 38.4031 13.41 37.1604 13.8288 36.2892L13.8661 36.212L13.8469 36.1264C13.3261 33.9407 12.8245 29.8463 15.3278 26.9896C15.7273 26.4869 17.262 24.7885 20.2391 23.9146L21.6911 23.4161C24.0704 22.6815 25.5747 22.5048 25.8253 22.5006C25.9839 22.5006 26.1256 22.5199 26.3323 22.5654L26.5113 22.6013C26.616 22.5847 26.7249 22.575 26.8473 22.575C27.6438 22.575 28.5045 22.9257 28.5045 22.9257C29.3436 23.2792 33.6057 25.2496 34.9572 29.4362C35.1816 30.0311 35.6393 31.8402 35.0468 35.7976L35.0318 35.8956L35.0938 35.9786C35.7012 36.7989 35.7524 38.1284 35.2466 39.9152C35.1142 40.7065 34.8567 41.3389 34.4779 41.815L34.4144 41.9489C34.041 44.0215 33.1222 46.0637 31.7568 47.8585L31.6479 48.0036L31.7499 48.1487C31.8092 48.237 31.8503 48.3281 31.8657 48.3944C32.0751 48.9936 33.6772 49.9424 36.1612 50.9394C36.7163 50.7376 37.102 50.6106 37.2387 50.5651C37.7414 50.3965 38.1618 50.2159 38.502 50.0666C41.1292 48.7672 41.4749 48.0094 41.5272 47.8354L41.6651 47.5275L41.5438 47.2416C39.5725 44.7797 38.1891 41.913 37.6575 39.1998L37.5763 39.0135C37.0308 38.319 36.6821 37.5068 36.5512 36.6218C35.9245 34.3585 35.8914 32.6933 36.4561 31.532L36.5181 31.4089L36.485 31.2762C35.7836 28.3404 35.1115 22.8478 38.4716 19.0216C39.0048 18.3518 41.0518 16.0735 45.0525 14.8998L47.0072 14.2273C50.2703 13.2222 52.2954 13.0027 52.5583 13C52.7731 13 52.9591 13.0235 53.2304 13.0884L53.4922 13.1312C54.575 12.9556 55.9057 13.4707 56.1467 13.5648C57.2738 14.0386 62.9866 16.6869 64.7981 22.3011C65.0999 23.0963 65.7116 25.5212 64.9167 30.8332L64.8932 30.9933L64.9925 31.1261C65.8024 32.2114 65.8644 33.9858 65.1854 36.3814C65.0118 37.4362 64.6673 38.2785 64.1565 38.9236L64.0668 39.1126C63.5721 41.8937 62.338 44.64 60.5 47.0579L60.3279 47.2829L60.4919 47.5206C60.5719 47.6378 60.6254 47.7582 60.6378 47.8338C61.0939 49.136 66.1785 51.4128 70.6338 52.7759C73.8411 53.9939 75.2488 55.967 75.2572 55.9794C79.6744 62.5519 80.2337 76.6623 80.2529 77.2684C80.184 80.9388 78.5211 81.6842 78.2016 81.7919L77.9206 81.9149C68.149 86.1887 53.8768 87.0213 52.28 87.1028L51.7812 87.1178C51.3046 87.1178 50.8211 87.0916 50.3677 87.0669L50.3276 87.0653L50.1802 87.0765C50.0617 87.1054 49.9654 87.1209 49.8661 87.1209H49.8646L49.7972 87.1182C49.1513 87.085 33.8278 86.2123 24.2656 81.9111C23.7436 81.773 22.0572 81.0468 21.9055 77.4787C18.4958 77.1832 10.339 76.2414 4.79937 73.752C4.38903 73.6444 3.0456 73.0726 3.00018 70.1743C3.06293 69.0596 3.59606 59.1011 6.73598 54.4203ZM59.0414 49.3015L58.7754 49.0531L58.511 49.3015C56.1717 51.5108 53.5803 52.7246 51.2218 52.7246C48.7436 52.7246 46.1853 51.6473 43.8242 49.6067L43.6244 49.4381L43.1066 49.6924C42.6659 50.094 41.8764 50.6712 41.5222 50.8452L41.0345 51.084L41.0869 51.1338L40.8994 51.2469C40.4529 51.5108 39.9779 51.7689 39.4351 52.0393C38.8854 52.2836 38.4143 52.4672 37.9142 52.6331C37.8165 52.6663 35.4826 53.4217 32.8227 54.656L32.3473 54.8038C29.8194 55.7691 28.7505 57.1291 28.7116 57.1758C24.7879 63.0138 24.1282 75.756 24.0635 77.1809C24.0939 79.1721 24.6601 79.6883 24.8076 79.7879C33.601 83.733 46.8855 84.7589 49.4562 84.9232L49.5277 84.9275L49.6009 84.9055C49.6875 84.8792 49.776 84.8669 49.8861 84.8669H49.8888L49.9797 84.8711C50.6822 84.9194 51.2634 84.9429 51.8066 84.9429H52.2323C53.8333 84.8461 68.1579 83.9058 77.3259 79.8172C77.5106 79.74 78.0519 79.1131 78.0919 77.282C78.0904 77.1454 77.6192 63.3911 73.5015 57.2603C73.3002 57.0061 72.1804 55.6985 69.9432 54.8424C67.9773 54.2362 63.1102 52.6192 60.4488 50.6874C60.3371 50.6199 60.227 50.5065 60.1085 50.3849C59.9137 50.1743 59.5087 49.7379 59.0414 49.3015ZM31.6459 52.7439L32.0097 52.6374C32.6075 52.3611 33.2346 52.088 33.8832 51.8213C32.967 51.3919 32.2176 50.9706 31.661 50.5636C31.5713 50.5111 31.482 50.42 31.3977 50.3317C31.1963 50.1148 30.925 49.8235 30.6082 49.5268L30.4388 49.371L30.2763 49.5299C28.5253 51.1786 26.5914 52.0829 24.8318 52.0829C22.9776 52.0829 21.0668 51.2793 19.3076 49.7576L19.1821 49.6511L18.8268 49.8235C18.5031 50.126 17.9134 50.5512 17.6505 50.6824L17.3433 50.8286L17.3806 50.866L17.1878 50.9791C16.8529 51.1793 16.4949 51.3699 16.0938 51.5686C15.6819 51.7507 15.332 51.8889 14.9613 52.0131C14.8897 52.0366 13.169 52.5903 11.1797 53.514L10.8298 53.6216C9.01826 54.3161 8.2303 55.2691 8.15447 55.3682C5.22704 59.7176 4.75433 69.1461 4.71161 70.1967C4.73239 71.6547 5.1358 72.0278 5.23666 72.0938C10.7443 74.5642 18.6521 75.4921 21.9775 75.7846C22.2766 71.4571 23.3429 61.2652 26.8997 55.9643L27.0498 55.7834C27.7708 54.8925 29.3494 53.6251 31.6459 52.7439ZM33.7057 36.9945L33.6438 36.9212C33.3655 36.7167 33.2292 36.4007 33.2815 36.0735C33.9429 32.0926 33.5129 30.4219 33.3655 30.0006C32.2122 26.456 28.5849 24.802 27.8716 24.5092C27.7285 24.454 27.4513 24.371 27.158 24.3213L27.0698 24.3004L26.5228 24.2715L26.5186 24.3089L26.3535 24.2939C26.2307 24.2842 26.1125 24.2649 26.0297 24.2468L25.845 24.2055C25.7279 24.2082 24.2952 24.3946 22.2189 25.0327L20.7546 25.5366C18.0958 26.3237 16.864 27.7941 16.6369 28.0912C14.5001 30.5215 15.0733 34.1779 15.6064 36.1426C15.6669 36.3841 15.6299 36.6326 15.4921 36.8359L15.3736 36.9891C15.2234 37.1909 15.0872 37.993 15.5499 39.7219C15.6365 40.2466 15.8309 40.6679 16.1092 40.948C16.222 41.0669 16.2978 41.2216 16.3255 41.3983C17.0461 45.6416 20.8373 50.3845 24.831 50.3845C28.2227 50.3845 32.0898 46.0185 32.7854 41.3983C32.8142 41.2227 32.8885 41.0684 33.0113 40.9287C33.295 40.6347 33.4782 40.2053 33.5914 39.5575C33.9259 38.356 33.9633 37.3853 33.7057 36.9945ZM63.2199 32.4213L63.1275 32.3148C62.7691 32.0567 62.5959 31.6508 62.6618 31.231C63.5587 25.8349 62.9732 23.5897 62.7718 23.0261C61.214 18.2333 56.3042 15.9925 55.3399 15.5947C55.1386 15.5175 54.764 15.4041 54.3672 15.3393L54.2609 15.3146L53.4522 15.2702L53.4495 15.3211L53.2759 15.3045C53.1146 15.2895 52.9564 15.2644 52.7716 15.2274L52.5868 15.1845C52.4367 15.1861 50.5409 15.4249 47.6824 16.3031L45.7165 16.9809C42.1235 18.0454 40.4498 20.0382 40.1426 20.4372C37.2525 23.7248 38.0239 28.6722 38.7403 31.3306C38.8242 31.6373 38.7734 31.956 38.5983 32.2156L38.4385 32.4213C38.1752 32.7747 38.0763 33.958 38.6645 36.1495C38.783 36.8648 39.0486 37.4447 39.4374 37.8298C39.5795 37.9818 39.6715 38.1805 39.7115 38.4054C40.6896 44.1427 45.82 50.5578 51.223 50.5578C55.8145 50.5578 61.0496 44.6535 61.9947 38.4093C62.0262 38.1844 62.1186 37.9814 62.2811 37.8043C62.6752 37.3969 62.9243 36.81 63.0775 35.9373C63.5325 34.2937 63.5794 32.9722 63.2199 32.4213Z" fill="#F05123"/>
<path d="M6.73598 54.4203L6.84877 54.2864C7.38729 53.6193 8.56519 52.6709 10.2832 52.0135L10.5465 51.9332C12.336 51.106 13.9574 50.5512 14.4328 50.395C14.8062 50.2719 15.1187 50.138 15.3682 50.0292C17.3421 49.0531 17.5654 48.4828 17.5973 48.3944L17.687 48.1846L17.6112 47.9955C16.1442 46.1644 15.1137 44.0311 14.7211 42.0206L14.6633 41.884C14.2584 41.3663 13.9993 40.7613 13.8962 40.0946C13.4292 38.4031 13.41 37.1604 13.8288 36.2892L13.8661 36.212L13.8469 36.1264C13.3261 33.9407 12.8245 29.8463 15.3278 26.9896C15.7273 26.4869 17.262 24.7885 20.2391 23.9146L21.6911 23.4161C24.0704 22.6815 25.5747 22.5048 25.8253 22.5006C25.9839 22.5006 26.1256 22.5199 26.3323 22.5654L26.5113 22.6013C26.616 22.5847 26.7249 22.575 26.8473 22.575C27.6438 22.575 28.5045 22.9257 28.5045 22.9257C29.3436 23.2792 33.6057 25.2496 34.9572 29.4362C35.1816 30.0311 35.6393 31.8402 35.0468 35.7976L35.0318 35.8956L35.0938 35.9786C35.7012 36.7989 35.7524 38.1284 35.2466 39.9152C35.1142 40.7065 34.8567 41.3389 34.4779 41.815L34.4144 41.9489C34.041 44.0215 33.1222 46.0637 31.7568 47.8585L31.6479 48.0036L31.7499 48.1487C31.8092 48.237 31.8503 48.3281 31.8657 48.3944C32.0751 48.9936 33.6772 49.9424 36.1612 50.9394C36.7163 50.7376 37.102 50.6106 37.2387 50.5651C37.7414 50.3965 38.1618 50.2159 38.502 50.0666C41.1292 48.7672 41.4749 48.0094 41.5272 47.8354L41.6651 47.5275L41.5438 47.2416C39.5725 44.7797 38.1891 41.913 37.6575 39.1998L37.5763 39.0135C37.0308 38.319 36.6821 37.5068 36.5512 36.6218C35.9245 34.3585 35.8914 32.6933 36.4561 31.532L36.5181 31.4089L36.485 31.2762C35.7836 28.3404 35.1115 22.8478 38.4716 19.0216C39.0048 18.3518 41.0518 16.0735 45.0525 14.8998L47.0072 14.2273C50.2703 13.2222 52.2954 13.0027 52.5583 13C52.7731 13 52.9591 13.0235 53.2304 13.0884L53.4922 13.1312C54.575 12.9556 55.9057 13.4707 56.1467 13.5648C57.2738 14.0386 62.9866 16.6869 64.7981 22.3011C65.0999 23.0963 65.7116 25.5212 64.9167 30.8332L64.8932 30.9933L64.9925 31.1261C65.8024 32.2114 65.8644 33.9858 65.1854 36.3814C65.0118 37.4362 64.6673 38.2785 64.1565 38.9236L64.0668 39.1126C63.5721 41.8937 62.338 44.64 60.5 47.0579L60.3279 47.2829L60.4919 47.5206C60.5719 47.6378 60.6254 47.7582 60.6378 47.8338C61.0939 49.136 66.1785 51.4128 70.6338 52.7759C73.8411 53.9939 75.2488 55.967 75.2572 55.9794C79.6744 62.5519 80.2337 76.6623 80.2529 77.2684C80.184 80.9388 78.5211 81.6842 78.2016 81.7919L77.9206 81.9149C68.149 86.1887 53.8768 87.0213 52.28 87.1028L51.7812 87.1178C51.3046 87.1178 50.8211 87.0916 50.3677 87.0669L50.3276 87.0653L50.1802 87.0765C50.0617 87.1054 49.9654 87.1209 49.8661 87.1209H49.8646L49.7972 87.1182C49.1513 87.085 33.8278 86.2123 24.2656 81.9111C23.7436 81.773 22.0572 81.0468 21.9055 77.4787C18.4958 77.1832 10.339 76.2414 4.79937 73.752C4.38903 73.6444 3.0456 73.0726 3.00018 70.1743C3.06293 69.0596 3.59606 59.1011 6.73598 54.4203ZM59.0414 49.3015L58.7754 49.0531L58.511 49.3015C56.1717 51.5108 53.5803 52.7246 51.2218 52.7246C48.7436 52.7246 46.1853 51.6473 43.8242 49.6067L43.6244 49.4381L43.1066 49.6924C42.6659 50.094 41.8764 50.6712 41.5222 50.8452L41.0345 51.084L41.0869 51.1338L40.8994 51.2469C40.4529 51.5108 39.9779 51.7689 39.4351 52.0393C38.8854 52.2836 38.4143 52.4672 37.9142 52.6331C37.8165 52.6663 35.4826 53.4217 32.8227 54.656L32.3473 54.8038C29.8194 55.7691 28.7505 57.1291 28.7116 57.1758C24.7879 63.0138 24.1282 75.756 24.0635 77.1809C24.0939 79.1721 24.6601 79.6883 24.8076 79.7879C33.601 83.733 46.8855 84.7589 49.4562 84.9232L49.5277 84.9275L49.6009 84.9055C49.6875 84.8792 49.776 84.8669 49.8861 84.8669H49.8888L49.9797 84.8711C50.6822 84.9194 51.2634 84.9429 51.8066 84.9429H52.2323C53.8333 84.8461 68.1579 83.9058 77.3259 79.8172C77.5106 79.74 78.0519 79.1131 78.0919 77.282C78.0904 77.1454 77.6192 63.3911 73.5015 57.2603C73.3002 57.0061 72.1804 55.6985 69.9432 54.8424C67.9773 54.2362 63.1102 52.6192 60.4488 50.6874C60.3371 50.6199 60.227 50.5065 60.1085 50.3849C59.9137 50.1743 59.5087 49.7379 59.0414 49.3015ZM31.6459 52.7439L32.0097 52.6374C32.6075 52.3611 33.2346 52.088 33.8832 51.8213C32.967 51.3919 32.2176 50.9706 31.661 50.5636C31.5713 50.5111 31.482 50.42 31.3977 50.3317C31.1963 50.1148 30.925 49.8235 30.6082 49.5268L30.4388 49.371L30.2763 49.5299C28.5253 51.1786 26.5914 52.0829 24.8318 52.0829C22.9776 52.0829 21.0668 51.2793 19.3076 49.7576L19.1821 49.6511L18.8268 49.8235C18.5031 50.126 17.9134 50.5512 17.6505 50.6824L17.3433 50.8286L17.3806 50.866L17.1878 50.9791C16.8529 51.1793 16.4949 51.3699 16.0938 51.5686C15.6819 51.7507 15.332 51.8889 14.9613 52.0131C14.8897 52.0366 13.169 52.5903 11.1797 53.514L10.8298 53.6216C9.01826 54.3161 8.2303 55.2691 8.15447 55.3682C5.22704 59.7176 4.75433 69.1461 4.71161 70.1967C4.73239 71.6547 5.1358 72.0278 5.23666 72.0938C10.7443 74.5642 18.6521 75.4921 21.9775 75.7846C22.2766 71.4571 23.3429 61.2652 26.8997 55.9643L27.0498 55.7834C27.7708 54.8925 29.3494 53.6251 31.6459 52.7439ZM33.7057 36.9945L33.6438 36.9212C33.3655 36.7167 33.2292 36.4007 33.2815 36.0735C33.9429 32.0926 33.5129 30.4219 33.3655 30.0006C32.2122 26.456 28.5849 24.802 27.8716 24.5092C27.7285 24.454 27.4513 24.371 27.158 24.3213L27.0698 24.3004L26.5228 24.2715L26.5186 24.3089L26.3535 24.2939C26.2307 24.2842 26.1125 24.2649 26.0297 24.2468L25.845 24.2055C25.7279 24.2082 24.2952 24.3946 22.2189 25.0327L20.7546 25.5366C18.0958 26.3237 16.864 27.7941 16.6369 28.0912C14.5001 30.5215 15.0733 34.1779 15.6064 36.1426C15.6669 36.3841 15.6299 36.6326 15.4921 36.8359L15.3736 36.9891C15.2234 37.1909 15.0872 37.993 15.5499 39.7219C15.6365 40.2466 15.8309 40.6679 16.1092 40.948C16.222 41.0669 16.2978 41.2216 16.3255 41.3983C17.0461 45.6416 20.8373 50.3845 24.831 50.3845C28.2227 50.3845 32.0898 46.0185 32.7854 41.3983C32.8142 41.2227 32.8885 41.0684 33.0113 40.9287C33.295 40.6347 33.4782 40.2053 33.5914 39.5575C33.9259 38.356 33.9633 37.3853 33.7057 36.9945ZM63.2199 32.4213L63.1275 32.3148C62.7691 32.0567 62.5959 31.6508 62.6618 31.231C63.5587 25.8349 62.9732 23.5897 62.7718 23.0261C61.214 18.2333 56.3042 15.9925 55.3399 15.5947C55.1386 15.5175 54.764 15.4041 54.3672 15.3393L54.2609 15.3146L53.4522 15.2702L53.4495 15.3211L53.2759 15.3045C53.1146 15.2895 52.9564 15.2644 52.7716 15.2274L52.5868 15.1845C52.4367 15.1861 50.5409 15.4249 47.6824 16.3031L45.7165 16.9809C42.1235 18.0454 40.4498 20.0382 40.1426 20.4372C37.2525 23.7248 38.0239 28.6722 38.7403 31.3306C38.8242 31.6373 38.7734 31.956 38.5983 32.2156L38.4385 32.4213C38.1752 32.7747 38.0763 33.958 38.6645 36.1495C38.783 36.8648 39.0486 37.4447 39.4374 37.8298C39.5795 37.9818 39.6715 38.1805 39.7115 38.4054C40.6896 44.1427 45.82 50.5578 51.223 50.5578C55.8145 50.5578 61.0496 44.6535 61.9947 38.4093C62.0262 38.1844 62.1186 37.9814 62.2811 37.8043C62.6752 37.3969 62.9243 36.81 63.0775 35.9373C63.5325 34.2937 63.5794 32.9722 63.2199 32.4213Z" stroke="#F05123" stroke-width="1.8" mask="url(#path-2-outside-2_38_740)"/>
</svg>
