<svg width="123" height="94" viewBox="0 0 123 94" fill="none" xmlns="http://www.w3.org/2000/svg">
<path fill-rule="evenodd" clip-rule="evenodd" d="M115.64 35.41L118.64 38.41C119.43 39.2 119.43 40.49 118.64 41.28L116.22 43.7C116.89 44.94 117.39 46.29 117.72 47.7H120.85C121.97 47.7 122.88 48.61 122.88 49.73V53.97C122.88 55.09 121.97 56 120.85 56H117.43C117.01 57.38 116.41 58.69 115.66 59.88L117.88 62.09C118.67 62.88 118.67 64.17 117.88 64.96L114.88 67.96C114.09 68.75 112.8 68.75 112.01 67.96L109.59 65.54C108.35 66.21 107.01 66.72 105.59 67.04V70.17C105.59 71.29 104.68 72.2 103.56 72.2H99.3198C98.1998 72.2 97.2898 71.29 97.2898 70.17V66.75C95.9098 66.33 94.5998 65.73 93.4098 64.98L91.1998 67.2C90.4098 67.99 89.1198 67.99 88.3298 67.2L85.3298 64.2C84.5398 63.41 84.5398 62.12 85.3298 61.33L87.7498 58.91C87.0798 57.67 86.5698 56.32 86.2498 54.91H83.1198C81.9998 54.91 81.0898 54 81.0898 52.88V48.64C81.0898 47.52 81.9998 46.61 83.1198 46.61H86.5398C86.9598 45.23 87.5598 43.92 88.3098 42.73L86.0998 40.52C85.3098 39.73 85.3098 38.44 86.0998 37.65L89.0998 34.65C89.8898 33.86 91.1798 33.86 91.9698 34.65L94.3898 37.07C95.6298 36.4 96.9798 35.89 98.3898 35.57V32.44C98.3898 31.32 99.2998 30.41 100.42 30.41H104.66C105.78 30.41 106.69 31.32 106.69 32.44V35.85C108.07 36.27 109.38 36.87 110.57 37.62L112.78 35.41C113.56 34.62 114.85 34.62 115.64 35.41ZM3.4998 70.32C6.4298 67.24 7.6198 66.85 11.5598 66.13C11.5598 44.92 11.5598 24.23 11.5598 3.03C2.3598 3.93 3.4298 12.44 3.4798 20.35C3.4898 21.41 3.4998 21.97 3.4998 22.23V70.32ZM29.1698 26.62H45.5698H46.8398V27.89V79.11V80.38H45.5698H29.1698H27.8998V79.11V27.89V26.62H29.1698ZM32.4798 72.19H35.8898V73.97H32.4798V72.19ZM32.4798 67.23H35.8898V69.01H32.4798V67.23ZM32.4798 62.21H35.8898V63.99H32.4798V62.21ZM32.4798 57.2H38.1398V58.98H32.4798V57.2ZM32.4798 52.19H35.8898V53.97H32.4798V52.19ZM32.4798 47.17H35.8898V48.95H32.4798V47.17ZM32.4798 42.16H35.8898V43.94H32.4798V42.16ZM32.4798 37.15H35.8898V38.93H32.4798V37.15ZM32.4798 32.18H38.1398V33.96H32.4798V32.18ZM44.2898 29.15H30.4398V77.83H44.2898V29.15ZM70.4898 38.22V80.02H58.7898V38.22H58.7398L59.1398 37.41L63.9698 27.48L64.4598 26.47L64.9698 27.47L70.1198 37.4L70.5498 38.23H70.4898V38.22ZM60.5498 37.08H68.6998L65.4598 30.84H63.5898L60.5498 37.08ZM15.0198 12.09H101.25C101.92 12.09 102.52 12.36 102.95 12.8C103.39 13.24 103.66 13.84 103.66 14.5V21.49H99.1898V16.04H15.0198V67.86H15.0098C15.0098 68.58 14.4898 69.2 13.7598 69.31C0.619803 71.34 0.0398035 86.91 13.3698 89.14H99.1898V82.6H103.66V91.2C103.66 91.86 103.39 92.46 102.95 92.9L102.94 92.91C102.5 93.35 101.9 93.62 101.24 93.62H13.2698C9.6698 93.62 4.6698 90.8 2.5898 87.82C0.549804 84.92 -0.180196 81.19 0.029804 76.85V22.23C0.029804 20.72 0.029804 20.56 0.029804 20.36C-0.030196 10.69 -0.100197 0.24 13.3698 0.01C13.4298 0 13.4798 0 13.5398 0C14.3598 0 15.0198 0.66 15.0198 1.48V12.09ZM101.98 42.97C106.59 42.97 110.32 46.71 110.32 51.31C110.32 55.91 106.58 59.65 101.98 59.65C97.3698 59.65 93.6398 55.91 93.6398 51.31C93.6398 46.71 97.3698 42.97 101.98 42.97Z" fill="#F05123"/>
</svg>
