<svg width="28" height="50" viewBox="0 0 28 50" fill="none" xmlns="http://www.w3.org/2000/svg">
<g clip-path="url(#clip0_25_675)">
<path fill-rule="evenodd" clip-rule="evenodd" d="M5.25905 0H22.7419C25.6457 0 28 2.42204 28 5.40263V44.5984C28 47.5809 25.6457 50 22.7419 50H5.25905C2.35524 50 0 47.5809 0 44.5984V5.39578C0 2.40639 2.35048 0 5.25905 0ZM5.22571 26.6326C4.86 26.6326 4.56286 26.3274 4.56286 25.9518C4.56286 25.5762 4.86 25.2719 5.22571 25.2719H22.7743C23.14 25.2719 23.4371 25.5762 23.4371 25.9518C23.4371 26.3274 23.14 26.6326 22.7743 26.6326H5.22571ZM5.22571 30.3557C4.86 30.3557 4.56286 30.0505 4.56286 29.6748C4.56286 29.2992 4.86 28.994 5.22571 28.994H19.659C20.0248 28.994 20.3219 29.2992 20.3219 29.6748C20.3219 30.0505 20.0248 30.3557 19.659 30.3557H5.22571ZM5.22571 37.7998C4.86 37.7998 4.56286 37.4956 4.56286 37.12C4.56286 36.7443 4.86 36.4391 5.22571 36.4391H9.83619C10.2019 36.4391 10.499 36.7443 10.499 37.12C10.499 37.4956 10.2019 37.7998 9.83619 37.7998H5.22571ZM5.22571 34.0777C4.86 34.0777 4.56286 33.7725 4.56286 33.3969C4.56286 33.0213 4.86 32.7171 5.22571 32.7171H12.559C12.9248 32.7171 13.2219 33.0213 13.2219 33.3969C13.2219 33.7725 12.9248 34.0777 12.559 34.0777H5.22571ZM16.9133 37.7558C16.9686 37.8055 17.0138 37.8659 17.0464 37.9336C17.0789 38.0012 17.0982 38.0748 17.103 38.1501C17.1079 38.2254 17.0983 38.301 17.0747 38.3725C17.0512 38.4439 17.0141 38.51 16.9657 38.5667C16.9173 38.6235 16.8585 38.6699 16.7926 38.7034C16.7268 38.7368 16.6551 38.7566 16.5818 38.7616C16.5085 38.7666 16.4349 38.7567 16.3653 38.7325C16.2957 38.7083 16.2315 38.6702 16.1762 38.6205L14.4114 37.0329C14.3561 36.9832 14.3109 36.9228 14.2784 36.8551C14.2458 36.7875 14.2266 36.7139 14.2217 36.6386C14.2168 36.5633 14.2265 36.4877 14.25 36.4162C14.2736 36.3448 14.3106 36.2788 14.359 36.222L14.4152 36.1643L16.1762 34.5796C16.2315 34.5299 16.2958 34.4919 16.3655 34.4678C16.4351 34.4437 16.5087 34.4339 16.582 34.439C16.6553 34.444 16.7269 34.4639 16.7928 34.4974C16.8586 34.531 16.9174 34.5775 16.9657 34.6343C17.0633 34.7491 17.1125 34.8989 17.1027 35.0509C17.0929 35.2029 17.0248 35.3448 16.9133 35.4453L15.6286 36.6005L16.9133 37.7558ZM21.1476 38.6205C21.0924 38.6703 21.0281 38.7083 20.9585 38.7325C20.8889 38.7568 20.8153 38.7667 20.742 38.7617C20.6687 38.7567 20.597 38.7369 20.5312 38.7034C20.4653 38.67 20.4065 38.6235 20.3581 38.5667C20.3097 38.51 20.2726 38.4439 20.2491 38.3725C20.2255 38.301 20.2159 38.2254 20.2207 38.1501C20.2256 38.0748 20.2449 38.0012 20.2774 37.9336C20.31 37.8659 20.3552 37.8055 20.4105 37.7558L21.6943 36.6005L20.4105 35.4453C20.3552 35.3956 20.31 35.3352 20.2774 35.2675C20.2449 35.1998 20.2256 35.1263 20.2207 35.051C20.2159 34.9757 20.2255 34.9001 20.2491 34.8286C20.2726 34.7571 20.3097 34.6911 20.3581 34.6343C20.561 34.3947 20.9152 34.3712 21.1476 34.5796L22.9076 36.1643L22.9648 36.222C23.0131 36.2788 23.0501 36.3449 23.0736 36.4164C23.0971 36.4879 23.1066 36.5635 23.1017 36.6388C23.0967 36.7141 23.0774 36.7877 23.0447 36.8553C23.0121 36.9229 22.9668 36.9833 22.9114 37.0329L21.1476 38.6205ZM18.56 34.2519C18.6295 33.9428 18.9314 33.75 19.2333 33.8215C19.5343 33.8938 19.7229 34.2039 19.6524 34.5131L18.6438 38.9492C18.6097 39.0978 18.5198 39.2265 18.3936 39.3071C18.2674 39.3878 18.1153 39.4138 17.9705 39.3796C17.6686 39.3072 17.481 38.9971 17.5514 38.688L18.56 34.2519ZM21.6571 15.5975C21.58 15.5427 21.499 15.5231 21.4105 15.5388C21.3219 15.5554 21.2505 15.6024 21.1971 15.6806L20.9086 16.1013C20.8038 16.0553 20.6952 16.0191 20.5829 15.9888C20.4714 15.9584 20.3581 15.9359 20.2448 15.9183L20.1505 15.3676C20.1352 15.2747 20.0914 15.2023 20.0171 15.1485C19.9429 15.0947 19.8619 15.0771 19.7714 15.0937L19.0971 15.214C19.0114 15.2297 18.9419 15.2747 18.8876 15.351C18.8343 15.4273 18.8162 15.5114 18.8314 15.6043L18.9171 16.1081C18.8095 16.156 18.7057 16.2098 18.6076 16.2705C18.5086 16.3311 18.4171 16.3967 18.3305 16.4671L17.8771 16.1443C17.8048 16.0895 17.7248 16.069 17.6352 16.0846C17.5467 16.1003 17.4771 16.1482 17.4229 16.2255L17.0333 16.7958C16.98 16.874 16.961 16.9582 16.9762 17.0491C16.9924 17.1391 17.0381 17.2135 17.1143 17.2673L17.5238 17.5647C17.479 17.6723 17.4438 17.7828 17.4143 17.8982C17.3848 18.0137 17.3629 18.1301 17.3457 18.2465L16.8095 18.3423C16.719 18.358 16.6476 18.404 16.5962 18.4803C16.5438 18.5556 16.5267 18.6397 16.5419 18.7326L16.66 19.4242C16.6752 19.5132 16.719 19.5847 16.7933 19.6404C16.8676 19.6942 16.9486 19.7138 17.039 19.6971L17.5305 19.6091C17.5771 19.7206 17.6295 19.8263 17.6886 19.927C17.7476 20.0288 17.8124 20.1256 17.881 20.2185L17.5657 20.6783C17.5124 20.7526 17.4924 20.8338 17.5076 20.9258C17.5229 21.0167 17.5695 21.0891 17.6448 21.1449L18.201 21.5508C18.2762 21.6017 18.3581 21.6183 18.4457 21.6027C18.5343 21.587 18.6067 21.542 18.66 21.4687L18.9486 21.0412C19.0524 21.0862 19.161 21.1234 19.2733 21.1527C19.3857 21.183 19.4981 21.2065 19.6114 21.2231L19.7057 21.7749C19.721 21.8678 19.7657 21.9402 19.839 21.994C19.9133 22.0468 19.9952 22.0654 20.0857 22.0488L20.759 21.9284C20.8457 21.9128 20.9152 21.8678 20.9686 21.7915C21.0219 21.7152 21.041 21.6311 21.0248 21.5381L20.939 21.0334C21.0459 20.9873 21.1493 20.9333 21.2486 20.872C21.3476 20.8103 21.4419 20.7448 21.5324 20.6734L21.98 20.9982C22.0524 21.0529 22.1324 21.0735 22.2229 21.0569C22.3152 21.0402 22.3838 20.9933 22.4333 20.917L22.8295 20.3457C22.879 20.2674 22.8952 20.1843 22.88 20.0933C22.8648 20.0023 22.821 19.929 22.7495 19.8732L22.3324 19.5778C22.3771 19.4702 22.4124 19.3587 22.4419 19.2433C22.4714 19.1288 22.4943 19.0124 22.5105 18.896L23.0476 18.8001C23.1381 18.7835 23.2086 18.7385 23.261 18.6622C23.3124 18.5869 23.3305 18.5028 23.3143 18.4098L23.1971 17.7182C23.1819 17.6292 23.1381 17.5578 23.0638 17.5021C22.9895 17.4473 22.9076 17.4287 22.8171 17.4443L22.3257 17.5324C22.2796 17.4245 22.2271 17.3197 22.1686 17.2184C22.1086 17.1147 22.0448 17.0188 21.9762 16.9308L22.2914 16.4642C22.3448 16.3898 22.3648 16.3077 22.3486 16.2157C22.3333 16.1257 22.2867 16.0533 22.2114 15.9976L21.6571 15.5975ZM19.7314 17.413C19.8867 17.3856 20.0381 17.3896 20.1867 17.4248C20.3343 17.461 20.4686 17.5216 20.5876 17.6077C20.7067 17.6938 20.8076 17.8024 20.8914 17.9334C20.9733 18.0655 21.0286 18.2103 21.0552 18.3697C21.0829 18.5282 21.079 18.6837 21.0448 18.8363C21.0095 18.9879 20.9495 19.1259 20.8667 19.2482C20.7806 19.3717 20.6727 19.4776 20.5486 19.5602C20.421 19.6453 20.28 19.7011 20.1248 19.7284C19.9705 19.7568 19.819 19.7529 19.6695 19.7177C19.5219 19.6815 19.3886 19.6208 19.2686 19.5348C19.1495 19.4487 19.0486 19.3401 18.9657 19.209C18.8829 19.077 18.8276 18.9322 18.801 18.7727C18.7743 18.6143 18.7781 18.4587 18.8124 18.3061C18.8476 18.1535 18.9067 18.0166 18.9905 17.8933C19.0743 17.772 19.18 17.6684 19.3076 17.5823C19.4362 17.4972 19.5771 17.4414 19.7314 17.413ZM14.5648 8.9721C14.5314 8.93786 14.499 8.91341 14.4676 8.90069C14.4381 8.88798 14.4019 8.88113 14.36 8.88113C14.3181 8.88113 14.281 8.88798 14.2505 8.90069C14.219 8.91439 14.1867 8.93786 14.1562 8.96917L13.5086 9.63239C13.457 9.68476 13.3892 9.71688 13.317 9.72314C13.2448 9.72939 13.1727 9.70939 13.1133 9.66663C13.04 9.6187 12.961 9.57174 12.8781 9.52479C12.7886 9.47588 12.701 9.43088 12.6152 9.39077C12.5257 9.34773 12.4333 9.3086 12.3429 9.27241C12.26 9.23915 12.1648 9.20491 12.0629 9.1697C12.0008 9.14882 11.9468 9.10836 11.9085 9.05408C11.8702 8.9998 11.8495 8.93448 11.8495 8.86743V7.85206C11.8495 7.80706 11.8429 7.76793 11.8295 7.73369C11.815 7.69913 11.794 7.66787 11.7676 7.64174C11.7421 7.6145 11.7117 7.59258 11.6781 7.57718C11.6448 7.56446 11.6067 7.55762 11.5629 7.55762H10.321C10.281 7.55762 10.2457 7.56349 10.2162 7.5762C10.1829 7.59088 10.1495 7.61337 10.1181 7.64566C10.0895 7.67402 10.0686 7.70435 10.0562 7.73663C10.0429 7.76891 10.0362 7.80804 10.0362 7.85206V8.78233C10.0362 8.93884 9.92571 9.06894 9.78095 9.09536C9.6819 9.11981 9.59143 9.14427 9.51048 9.1697C9.41905 9.19905 9.32667 9.2323 9.23619 9.2685L9.22095 9.27437C9.13809 9.30665 9.05429 9.34382 8.96857 9.3849L8.95333 9.39077C8.87048 9.43088 8.79143 9.47196 8.71524 9.51403C8.59333 9.5825 8.44571 9.55707 8.35143 9.46218L7.62952 8.73146C7.6019 8.70114 7.57238 8.67864 7.54286 8.66592C7.51429 8.65321 7.48 8.64636 7.44 8.64636C7.4 8.64636 7.36381 8.65418 7.33333 8.6669C7.29905 8.68157 7.26571 8.70603 7.23333 8.73831L6.36667 9.63141C6.33429 9.66467 6.31048 9.69793 6.29714 9.73119C6.28476 9.76249 6.2781 9.79966 6.2781 9.8427C6.2781 9.88575 6.28476 9.92389 6.29714 9.9552C6.31143 9.98748 6.33333 10.0198 6.36381 10.0511L7.00952 10.7162C7.11714 10.8278 7.12857 10.9999 7.04286 11.1232C6.99619 11.1975 6.95048 11.2787 6.90571 11.3648C6.85714 11.4567 6.81333 11.5467 6.77429 11.6348C6.69168 11.8192 6.62012 12.0087 6.56 12.2021C6.53962 12.2657 6.50019 12.3211 6.44733 12.3603C6.39447 12.3994 6.3309 12.4205 6.26571 12.4203L5.27619 12.4213C5.23238 12.4213 5.19429 12.4281 5.1619 12.4418C5.12952 12.4545 5.09905 12.476 5.07143 12.5044C5.04286 12.5337 5.02286 12.5641 5.00952 12.5973C4.99619 12.6316 4.98952 12.6707 4.98952 12.7157V13.9913C4.98952 14.0324 4.99524 14.0686 5.00762 14.0989C5.0219 14.1331 5.04476 14.1664 5.07524 14.1996C5.10381 14.228 5.13333 14.2495 5.16381 14.2632C5.19524 14.2759 5.23333 14.2828 5.27619 14.2828H6.18191C6.33429 14.2828 6.46191 14.3963 6.48762 14.5459C6.51048 14.6467 6.53524 14.7396 6.56 14.8237C6.58857 14.9176 6.62 15.0115 6.65524 15.1045L6.66286 15.127C6.69333 15.2062 6.72952 15.2933 6.76952 15.3862C6.81333 15.485 6.85619 15.576 6.89714 15.6572C6.96095 15.7833 6.93429 15.933 6.8419 16.0289L6.13238 16.7547C6.10286 16.7841 6.08095 16.8134 6.06857 16.8437C6.05619 16.874 6.05048 16.9093 6.05048 16.9494C6.05048 16.9914 6.05714 17.0276 6.07048 17.0589C6.08476 17.0941 6.10857 17.1294 6.14 17.1616L7.00286 18.0587C7.03333 18.088 7.06667 18.1105 7.09905 18.1232C7.13238 18.1359 7.17048 18.1438 7.21429 18.1438C7.2581 18.1438 7.2981 18.1359 7.33143 18.1232L7.34095 18.1193C7.36952 18.1066 7.39714 18.087 7.42286 18.0616L8.06286 17.3945C8.16762 17.2849 8.32952 17.2702 8.44952 17.3495C8.53048 17.4023 8.61333 17.4531 8.69619 17.4991C8.78571 17.549 8.87333 17.593 8.95905 17.6341C9.13921 17.7176 9.3236 17.7911 9.51143 17.8542C9.6419 17.8982 9.72476 18.0225 9.72476 18.1565V19.1719C9.72476 19.2168 9.73143 19.257 9.74476 19.2902L9.74952 19.302C9.76191 19.3293 9.78095 19.3558 9.80667 19.3822C9.83619 19.4115 9.86667 19.434 9.89714 19.4467C9.92952 19.4604 9.96762 19.4673 10.0114 19.4673H11.2533C11.2933 19.4673 11.3286 19.4604 11.3581 19.4487C11.3914 19.434 11.4248 19.4105 11.4562 19.3792C11.4848 19.3499 11.5057 19.3196 11.5181 19.2873C11.5314 19.255 11.5381 19.2168 11.5381 19.1719V18.2416C11.5381 18.0851 11.6486 17.955 11.7933 17.9286C11.8933 17.9041 11.9848 17.8787 12.0676 17.8532C12.161 17.8229 12.2524 17.7906 12.339 17.7564C12.4257 17.7212 12.5171 17.682 12.6114 17.638C12.7086 17.593 12.7971 17.549 12.8752 17.5079C12.9981 17.4414 13.1448 17.4688 13.2371 17.5647L13.9448 18.2924C13.9714 18.3218 14 18.3433 14.0314 18.357L14.0467 18.3648C14.0724 18.3736 14.1029 18.3775 14.1381 18.3775C14.1819 18.3775 14.219 18.3707 14.2467 18.358C14.2781 18.3433 14.3067 18.3218 14.3333 18.2924L15.2143 17.3993C15.2429 17.3671 15.2638 17.3338 15.2762 17.3005C15.2895 17.2663 15.2962 17.2262 15.2962 17.1822C15.2962 17.1362 15.2895 17.0961 15.2762 17.0619L15.2724 17.0511C15.26 17.0227 15.241 16.9934 15.2162 16.967L14.5667 16.3106C14.5161 16.2594 14.4843 16.1918 14.4765 16.1193C14.4687 16.0469 14.4854 15.9738 14.5238 15.9125C14.5752 15.8303 14.6238 15.7452 14.6686 15.6591C14.7171 15.5672 14.761 15.4772 14.8 15.3901C14.841 15.2972 14.879 15.2033 14.9152 15.1094C14.9476 15.0243 14.981 14.9274 15.0152 14.8218C15.0356 14.7583 15.0749 14.7031 15.1275 14.6639C15.1802 14.6248 15.2435 14.6037 15.3086 14.6036H16.2981C16.3419 14.6036 16.38 14.5958 16.4124 14.5831L16.4248 14.5782C16.4524 14.5645 16.4781 14.5449 16.5029 14.5195C16.5314 14.4902 16.5524 14.4589 16.5657 14.4266C16.5781 14.3933 16.5848 14.3532 16.5848 14.3082V13.0336C16.5848 12.9925 16.579 12.9563 16.5667 12.925C16.5524 12.8908 16.5295 12.8575 16.499 12.8243C16.4705 12.7959 16.441 12.7744 16.4105 12.7617C16.379 12.748 16.341 12.7411 16.2981 12.7411H15.3924C15.2371 12.7411 15.1086 12.6237 15.0857 12.4711C15.0648 12.3851 15.04 12.2951 15.0124 12.2041C14.9857 12.1141 14.9543 12.0202 14.9181 11.9233L14.9124 11.9067C14.8781 11.8148 14.8429 11.7267 14.8057 11.6436C14.7648 11.5526 14.7229 11.4655 14.679 11.3844C14.6133 11.2591 14.6381 11.1075 14.7305 11.0107L15.4419 10.2692C15.4714 10.2408 15.4933 10.2105 15.5057 10.1802C15.5181 10.1508 15.5238 10.1156 15.5238 10.0745C15.5238 10.0335 15.5171 9.99628 15.5048 9.96498C15.4895 9.92976 15.4667 9.89455 15.4352 9.86227L14.5648 8.9721ZM14.7076 8.3167C14.8171 8.36366 14.9162 8.43311 15.0029 8.52213L15.8752 9.41718C15.961 9.50718 16.0276 9.60696 16.0733 9.71652C16.12 9.82901 16.1438 9.94835 16.1438 10.0745C16.1438 10.2027 16.119 10.323 16.0714 10.4345C16.0248 10.5441 15.9562 10.6409 15.8695 10.727L15.3267 11.2924L15.3667 11.3804C15.4105 11.4783 15.4514 11.579 15.4895 11.6808L15.4962 11.6964C15.5333 11.7981 15.5695 11.9057 15.6029 12.0173L15.6286 12.1043H16.2981C16.4219 12.1043 16.5381 12.1278 16.6476 12.1747C16.7563 12.2222 16.8547 12.2914 16.9371 12.3782L16.9438 12.3851C17.0286 12.4751 17.0933 12.5739 17.1371 12.6824C17.1819 12.7949 17.2048 12.9123 17.2048 13.0336V14.3082C17.2048 14.4354 17.1819 14.5537 17.1381 14.6653C17.0921 14.7782 17.0251 14.8809 16.941 14.9675C16.859 15.0507 16.7695 15.1143 16.6714 15.1602L16.6448 15.172C16.5371 15.217 16.421 15.2395 16.2981 15.2395H15.5276L15.4905 15.3383C15.4505 15.4439 15.4076 15.5496 15.3619 15.6532C15.3156 15.7573 15.2661 15.8597 15.2133 15.9604L15.1743 16.0338L15.6629 16.5278C15.74 16.6119 15.8 16.7058 15.8419 16.8075L15.8524 16.831C15.8943 16.9415 15.9162 17.0589 15.9162 17.1822C15.9162 17.3045 15.8943 17.4209 15.8524 17.5314C15.8089 17.6429 15.7456 17.745 15.6657 17.8327L14.78 18.7317C14.6952 18.8236 14.5981 18.894 14.4914 18.941C14.38 18.9889 14.2629 19.0144 14.1381 19.0144C14.0257 19.0144 13.919 18.9938 13.8181 18.9527L13.7867 18.941C13.6772 18.8918 13.5787 18.8203 13.4971 18.7307L12.9562 18.1741L12.8657 18.2171C12.7714 18.2611 12.6695 18.3052 12.5619 18.3472C12.4571 18.3893 12.3524 18.4265 12.2486 18.4597L12.1571 18.4861V19.1719C12.1583 19.2942 12.1353 19.4154 12.0897 19.5284C12.044 19.6414 11.9766 19.7437 11.8914 19.8292L11.8848 19.8361C11.7971 19.9231 11.7 19.9896 11.5952 20.0337C11.4848 20.0796 11.3714 20.1031 11.2533 20.1031H10.0114C9.88857 20.1031 9.77238 20.0806 9.66476 20.0356C9.55368 19.989 9.45293 19.9198 9.36857 19.8321C9.29088 19.7522 9.22796 19.6584 9.18286 19.5553L9.17143 19.5289C9.12762 19.4174 9.10476 19.299 9.10476 19.1719V18.3805L9.00952 18.3433C8.90571 18.3022 8.80381 18.2572 8.70286 18.2103C8.59714 18.1604 8.49619 18.1095 8.40381 18.0587L8.33238 18.0176L7.85048 18.5194C7.76952 18.5986 7.6781 18.6612 7.57905 18.7043L7.55619 18.7141C7.44732 18.758 7.33127 18.7803 7.21429 18.7796C7.09524 18.7796 6.9819 18.7581 6.87429 18.7141C6.76511 18.6702 6.66519 18.6051 6.58 18.5223L5.69905 17.6067C5.61333 17.5167 5.54667 17.417 5.50095 17.3074C5.45399 17.1942 5.43001 17.0724 5.43048 16.9494C5.43048 16.8212 5.45524 16.7009 5.50286 16.5894C5.55056 16.4783 5.61993 16.3784 5.70667 16.2959L6.24857 15.7403L6.20571 15.6474C6.16857 15.5603 6.12857 15.4635 6.08857 15.3559L6.08 15.3353C6.04 15.2307 6.00286 15.1211 5.96952 15.0096L5.94381 14.9196H5.27619C5.15238 14.9196 5.03619 14.8961 4.92667 14.8492C4.81905 14.8032 4.72286 14.7347 4.63619 14.6457L4.63048 14.6398C4.54476 14.5489 4.48095 14.4501 4.43714 14.3415C4.39238 14.229 4.37048 14.1126 4.37048 13.9913V12.7157C4.37048 12.5885 4.39238 12.4692 4.43619 12.3586C4.48151 12.2456 4.54856 12.1432 4.63333 12.0574C4.72286 11.9654 4.82095 11.8979 4.92952 11.8519C5.03714 11.8069 5.15333 11.7844 5.27619 11.7844H6.04667L6.08381 11.6856C6.1234 11.5791 6.1666 11.4741 6.21333 11.3707C6.26095 11.2621 6.31048 11.1594 6.36095 11.0635L6.40191 10.9882L5.93048 10.503C5.84417 10.4171 5.77551 10.3143 5.72857 10.2007C5.68188 10.0875 5.65791 9.9657 5.6581 9.8427C5.6581 9.71847 5.6819 9.59913 5.72857 9.48566C5.77563 9.37259 5.84354 9.26995 5.92857 9.18339L6.8 8.28638C6.88762 8.19834 6.98476 8.12987 7.09143 8.08291C7.2019 8.03498 7.3181 8.01053 7.44 8.01053C7.56476 8.01053 7.6819 8.03498 7.79143 8.08487C7.89714 8.1328 7.99238 8.20225 8.07524 8.29225L8.62571 8.84885L8.70952 8.80776C8.79905 8.7657 8.89619 8.72364 8.9981 8.68255L9.01143 8.67668C9.11333 8.6356 9.22 8.59843 9.32952 8.56419L9.41714 8.53778V7.85206C9.416 7.72975 9.43895 7.60846 9.48461 7.4955C9.53028 7.38253 9.59771 7.28021 9.68286 7.1947L9.68952 7.18785C9.77714 7.10079 9.87429 7.03525 9.97905 6.99026C10.0895 6.94428 10.2029 6.9208 10.321 6.9208H11.5629C11.6857 6.9208 11.8019 6.9433 11.9095 6.9883C12.021 7.03623 12.119 7.10275 12.2057 7.19177C12.2924 7.28078 12.3581 7.38252 12.4029 7.49501C12.4467 7.60555 12.4695 7.72489 12.4695 7.85206V8.64342L12.5648 8.6806C12.6676 8.72168 12.7714 8.76668 12.8714 8.81363C12.9771 8.86352 13.0781 8.91439 13.1705 8.96525L13.2438 9.00732L13.7171 8.52408C13.8038 8.43311 13.9029 8.36366 14.0105 8.3167C14.1219 8.26877 14.239 8.24432 14.36 8.24432C14.481 8.24432 14.5971 8.26779 14.7076 8.3167ZM11.8581 10.9158C12.1943 11.0655 12.4867 11.266 12.7295 11.5164L12.7476 11.536C12.9838 11.7835 13.1743 12.0769 13.3152 12.4125L13.3248 12.4398C13.461 12.7812 13.5295 13.1481 13.5295 13.512C13.5295 13.8847 13.4581 14.2603 13.3152 14.6095V14.6124C13.1714 14.9548 12.9743 15.2541 12.7295 15.5065C12.4838 15.7589 12.1924 15.9604 11.8581 16.1081L11.8314 16.1189C11.1537 16.403 10.394 16.3991 9.71905 16.1081H9.71619C9.3819 15.9604 9.09048 15.7589 8.84571 15.5075C8.59905 15.2541 8.40381 14.9548 8.25905 14.6124L8.24952 14.585C8.11238 14.2427 8.04476 13.8758 8.04476 13.512C8.04476 13.1393 8.11619 12.7636 8.25905 12.4144V12.4125C8.40381 12.0681 8.6 11.7688 8.84476 11.5174C9.08762 11.266 9.38 11.0655 9.71619 10.9158L9.74286 10.906C10.0752 10.7652 10.4324 10.6947 10.7876 10.6947C11.1505 10.6947 11.5152 10.7681 11.8552 10.9158H11.8581ZM12.2914 11.9664C12.1029 11.7727 11.8762 11.6162 11.6133 11.4998C11.3552 11.3873 11.0724 11.3315 10.7876 11.3315C10.5086 11.3315 10.2324 11.3844 9.97905 11.491L9.96095 11.4998C9.6981 11.6162 9.47143 11.7727 9.28286 11.9664C9.09333 12.1591 8.94191 12.3919 8.82762 12.6629C8.7181 12.9289 8.66381 13.2195 8.66381 13.512C8.66381 13.7976 8.71619 14.0813 8.81905 14.3425L8.82762 14.361C8.94191 14.632 9.09333 14.8648 9.28095 15.0575C9.46952 15.2512 9.69714 15.4077 9.96095 15.5241C10.219 15.6366 10.5019 15.6924 10.7876 15.6924C11.0657 15.6924 11.3419 15.6396 11.5952 15.5329L11.6133 15.5241C11.8771 15.4077 12.1048 15.2512 12.2914 15.0585C12.481 14.8648 12.6324 14.632 12.7467 14.361C12.8552 14.095 12.9105 13.8044 12.9105 13.512C12.9105 13.2263 12.8581 12.9426 12.7543 12.6815L12.7467 12.6629C12.6352 12.3997 12.4895 12.1718 12.3086 11.982L12.2914 11.9664ZM1.81143 42.4962H26.181V5.35078H1.81143V42.4962ZM13.9933 44.1865C15.1829 44.1865 16.1552 45.1706 16.1552 46.4071C16.1552 47.6308 15.1981 48.6286 13.9933 48.6286C12.8038 48.6286 11.8305 47.6455 11.8305 46.4071C11.8305 45.1862 12.7886 44.1865 13.9933 44.1865Z" fill="#F05123"/>
</g>
<defs>
<clipPath id="clip0_25_675">
<rect width="28" height="50" fill="white"/>
</clipPath>
</defs>
</svg>
