<svg width="47" height="52" viewBox="0 0 47 52" fill="none" xmlns="http://www.w3.org/2000/svg">
<path fill-rule="evenodd" clip-rule="evenodd" d="M14.8378 20.2533L22.7545 15.9115V7.74837C21.8346 7.58773 21.0016 7.11433 20.4014 6.41113L7.71843 13.6178C7.86926 14.0326 7.95114 14.4769 7.95114 14.9424C7.95114 15.3317 7.89512 15.7041 7.78738 16.0596L14.8378 20.2533ZM19.7292 5.28125C19.5609 4.84155 19.4747 4.37565 19.4749 3.90592C19.4749 2.82682 19.9188 1.84928 20.6385 1.14258C21.3582 0.435872 22.3537 0 23.4526 0C24.5515 0 25.5471 0.435872 26.2667 1.14258C26.6365 1.50522 26.9296 1.93603 27.1293 2.41025C27.329 2.88447 27.4313 3.39276 27.4303 3.90592C27.4303 4.37988 27.3441 4.83268 27.189 5.25163L39.9323 12.488C40.0228 12.3822 40.1133 12.2764 40.2125 12.179C40.5818 11.816 41.0205 11.5281 41.5034 11.332C41.9864 11.136 42.504 11.0355 43.0266 11.0365C44.1255 11.0365 45.121 11.4723 45.8407 12.179C46.2105 12.5417 46.5036 12.9725 46.7033 13.4467C46.903 13.9209 47.0053 14.4292 47.0043 14.9424C47.0043 16.0215 46.5604 16.9948 45.8407 17.7015C45.2222 18.3096 44.416 18.6995 43.5481 18.8102V33.1602C44.4401 33.2744 45.2374 33.6764 45.8407 34.2689C46.5604 34.9756 47.0043 35.9531 47.0043 37.028C47.0048 37.5411 46.9022 38.0492 46.7025 38.5233C46.5027 38.9973 46.2097 39.4281 45.8403 39.7909C45.4708 40.1537 45.0322 40.4414 44.5493 40.6375C44.0665 40.8336 43.5491 40.9344 43.0266 40.9339C42.4367 40.9348 41.854 40.8065 41.3209 40.5583C40.7879 40.3102 40.3179 39.9484 39.9453 39.4993L27.1847 46.7441C27.3398 47.1631 27.426 47.6159 27.426 48.0898C27.426 49.1689 26.9821 50.1465 26.2624 50.8532C25.8931 51.2163 25.4544 51.5041 24.9715 51.7002C24.4885 51.8963 23.9709 51.9967 23.4483 51.9958C22.3494 51.9958 21.3539 51.5599 20.6342 50.8532C19.9145 50.1465 19.4706 49.1689 19.4706 48.0898C19.4706 47.6074 19.5611 47.1419 19.7248 46.7145L7.04614 39.5163C6.67313 39.9619 6.20399 40.3206 5.67261 40.5665C5.14122 40.8124 4.56085 40.9393 3.97342 40.9382C2.87449 40.9382 1.87898 40.5023 1.15928 39.7956C0.443898 39.0889 1.37197e-05 38.1113 1.37197e-05 37.0322C1.37197e-05 35.9531 0.443898 34.9798 1.16359 34.2731C1.7751 33.672 2.56931 33.2828 3.42611 33.1644V18.806C2.56873 18.6894 1.77394 18.2999 1.16359 17.6973C0.793568 17.3357 0.500211 16.9057 0.300488 16.4321C0.100764 15.9585 -0.00136219 15.4507 1.37197e-05 14.9382C1.37197e-05 13.859 0.443898 12.8815 1.16359 12.1748C1.5329 11.8117 1.97163 11.5239 2.45456 11.3278C2.9375 11.1317 3.45514 11.0313 3.97773 11.0322C4.56872 11.0312 5.15248 11.1599 5.68634 11.4088C6.2202 11.6577 6.69067 12.0206 7.06337 12.471L19.7292 5.28125ZM26.521 6.38574C25.917 7.1089 25.0679 7.59415 24.1292 7.7526V15.9115L32.0286 20.4056L39.2902 16.2839C39.1308 15.8649 39.0489 15.4079 39.0489 14.9382C39.0489 14.4811 39.1308 14.0368 39.2773 13.6305L26.521 6.38574ZM42.3328 18.7848C41.529 18.6476 40.7882 18.2691 40.2125 17.7015C40.1306 17.6211 40.053 17.5407 39.9797 17.4518L32.7311 21.5651V30.3587L40.0099 34.4847C40.0746 34.4128 40.1392 34.3408 40.2082 34.2731C40.7845 33.7063 41.525 33.328 42.3285 33.1898V18.7848H42.3328ZM39.2859 38.3652C39.1308 37.9505 39.0489 37.502 39.0489 37.0365C39.0489 36.5456 39.1394 36.0758 39.3118 35.64L32.27 31.6494L24.1292 36.2959V44.2474C25.0679 44.4058 25.917 44.8911 26.521 45.6143L39.2859 38.3652ZM20.4014 45.5846C21.0016 44.8814 21.8346 44.408 22.7545 44.2474V36.2578L14.5835 31.6029L7.64947 35.5342C7.8434 35.9954 7.95545 36.5033 7.95545 37.0365C7.95545 37.5104 7.86926 37.9632 7.71412 38.3822L20.4014 45.5846ZM4.63709 33.1813C5.46884 33.3167 6.21439 33.7103 6.78756 34.2731C6.83066 34.3154 6.86944 34.3577 6.90823 34.4001L13.9716 30.3968V21.3112L7.17111 17.2656C7.05475 17.4222 6.92547 17.5661 6.78756 17.7015C6.20325 18.2754 5.4518 18.6569 4.63709 18.7933V33.1813ZM3.98204 17.4941C3.99928 17.4941 4.01652 17.4899 4.03376 17.4899H4.06823C4.72679 17.4696 5.35262 17.2032 5.81791 16.7451C6.05997 16.5081 6.25196 16.2264 6.38286 15.9163C6.51376 15.6063 6.581 15.2738 6.5807 14.9382C6.5807 14.2314 6.28765 13.5924 5.81791 13.1312C5.34817 12.6699 4.69743 12.3822 3.97773 12.3822C3.25804 12.3822 2.60729 12.6699 2.13755 13.1312C1.8955 13.3682 1.7035 13.6499 1.5726 13.96C1.4417 14.27 1.37447 14.6025 1.37476 14.9382C1.37476 15.6449 1.66781 16.2839 2.13755 16.7451C2.37955 16.9832 2.66709 17.1719 2.98364 17.3005C3.30019 17.429 3.63949 17.4948 3.98204 17.4941ZM25.2885 46.2913C25.0471 46.0537 24.7603 45.8651 24.4445 45.7366C24.1287 45.608 23.7901 45.542 23.4483 45.5423C22.7286 45.5423 22.0779 45.8301 21.6081 46.2913C21.1384 46.7526 20.8453 47.3916 20.8453 48.0983C20.8453 48.805 21.1384 49.444 21.6081 49.9053C22.0779 50.3665 22.7286 50.6543 23.4483 50.6543C24.168 50.6543 24.8187 50.3665 25.2885 49.9053C25.7582 49.444 26.0513 48.805 26.0513 48.0983C26.0513 47.3916 25.7625 46.7526 25.2885 46.2913ZM25.2885 2.09896C25.0471 1.86127 24.7603 1.67274 24.4445 1.5442C24.1287 1.41567 23.7901 1.34965 23.4483 1.34993C22.7286 1.34993 22.0779 1.6377 21.6081 2.09896C21.1384 2.56022 20.8453 3.19922 20.8453 3.90592C20.8453 4.61263 21.1384 5.25163 21.6081 5.71289C21.8495 5.95058 22.1363 6.13911 22.4521 6.26764C22.7679 6.39618 23.1065 6.4622 23.4483 6.46191C24.168 6.46191 24.8187 6.17415 25.2885 5.71289C25.5305 5.47586 25.7225 5.19421 25.8534 4.88412C25.9843 4.57403 26.0516 4.2416 26.0513 3.90592C26.0513 3.19922 25.7625 2.56022 25.2885 2.09896ZM44.8625 35.2295C44.6211 34.9918 44.3343 34.8033 44.0185 34.6747C43.7027 34.5462 43.3641 34.4802 43.0223 34.4805C42.3026 34.4805 41.6519 34.7682 41.1821 35.2295C40.9401 35.4665 40.7481 35.7482 40.6172 36.0583C40.4863 36.3684 40.419 36.7008 40.4193 37.0365C40.4193 37.7432 40.7124 38.3822 41.1821 38.8434C41.4235 39.0811 41.7103 39.2696 42.0261 39.3982C42.3419 39.5267 42.6804 39.5927 43.0223 39.5924C43.742 39.5924 44.3927 39.3047 44.8625 38.8434C45.1045 38.6064 45.2965 38.3247 45.4274 38.0147C45.5583 37.7046 45.6256 37.3721 45.6253 37.0365C45.6253 36.3298 45.3365 35.6908 44.8625 35.2295ZM5.81791 35.2295C5.34817 34.7682 4.69743 34.4805 3.97773 34.4805C3.25804 34.4805 2.60729 34.7682 2.13755 35.2295C1.8955 35.4665 1.7035 35.7482 1.5726 36.0583C1.4417 36.3684 1.37447 36.7008 1.37476 37.0365C1.37476 37.7432 1.66781 38.3822 2.13755 38.8434C2.60729 39.3047 3.25804 39.5924 3.97773 39.5924C4.69743 39.5924 5.34817 39.3047 5.81791 38.8434C6.05997 38.6064 6.25196 38.3247 6.38286 38.0147C6.51376 37.7046 6.581 37.3721 6.5807 37.0365C6.57931 36.3589 6.30511 35.7093 5.81791 35.2295ZM40.7038 16.0934C40.7382 16.1273 40.7641 16.1696 40.7899 16.2119C40.8158 16.2542 40.833 16.2965 40.8503 16.3431C40.9494 16.487 41.0614 16.6224 41.1821 16.7451C41.4235 16.9828 41.7103 17.1713 42.0261 17.2999C42.3419 17.4284 42.6804 17.4944 43.0223 17.4941C43.742 17.4941 44.3927 17.2064 44.8625 16.7451C45.1045 16.5081 45.2965 16.2264 45.4274 15.9163C45.5583 15.6063 45.6256 15.2738 45.6253 14.9382C45.6253 14.2314 45.3322 13.5924 44.8625 13.1312C44.6211 12.8935 44.3343 12.705 44.0185 12.5764C43.7027 12.4479 43.3641 12.3819 43.0223 12.3822C42.3026 12.3822 41.6519 12.6699 41.1821 13.1312C40.9401 13.3682 40.7481 13.6499 40.6172 13.96C40.4863 14.27 40.419 14.6025 40.4193 14.9382C40.4236 15.3571 40.5271 15.7464 40.7038 16.0934ZM15.2601 30.2529C15.3581 30.3563 15.4225 30.4859 15.4455 30.6253L22.8277 34.8867V26.474L15.2601 22.0518V30.2529ZM31.4468 22.166L24.1163 26.4782V34.8952L31.4468 30.6423V22.166ZM23.4397 16.9229L16.2858 21.125L23.4785 25.3779L30.4643 21.2139L23.4397 16.9229Z" fill="#F05123"/>
</svg>
