<svg width="63" height="39" viewBox="0 0 63 39" fill="none" xmlns="http://www.w3.org/2000/svg">
<g clip-path="url(#clip0_25_695)">
<path fill-rule="evenodd" clip-rule="evenodd" d="M1.29199 36.0973H7.74683C7.50873 36.0354 7.29794 35.8983 7.14693 35.7071C6.99592 35.5158 6.91307 35.2811 6.91113 35.039V9.07096C6.91249 8.78047 7.03084 8.50233 7.2403 8.2974C7.44976 8.09246 7.73327 7.97741 8.02881 7.97741H15.104L14.6477 9.78152H8.90552V34.7266H53.9509V9.77648H48.3113L47.7986 7.97237H54.6995C54.9919 7.97766 55.2704 8.0959 55.4747 8.3015C55.6791 8.5071 55.7929 8.78352 55.7915 9.07096V35.034C55.7913 35.2765 55.7091 35.5121 55.5578 35.7037C55.4065 35.8952 55.1948 36.0319 54.9558 36.0923H61.708C63.4307 36.0923 63.4307 39 61.708 39H1.29199C-0.430664 39 -0.430664 36.0973 1.29199 36.0973ZM29.5876 2.2301e-05H33.9866C34.1429 2.2301e-05 34.2929 0.06108 34.4035 0.169763C34.5141 0.278447 34.5762 0.425853 34.5762 0.579554V2.01579H41.5283C41.6453 1.68334 41.8382 1.38166 42.0923 1.13389C42.3134 0.915394 42.5762 0.742004 42.8657 0.623687C43.1551 0.50537 43.4655 0.444461 43.7791 0.444461C44.0926 0.444461 44.403 0.50537 44.6924 0.623687C44.9819 0.742004 45.2448 0.915394 45.4658 1.13389C45.6881 1.35119 45.8645 1.60953 45.9849 1.89406C46.1053 2.17859 46.1672 2.4837 46.1672 2.79186C46.1672 3.10001 46.1053 3.40512 45.9849 3.68965C45.8645 3.97419 45.6881 4.23253 45.4658 4.44982C45.2448 4.66832 44.9819 4.84171 44.6924 4.96002C44.403 5.07834 44.0926 5.13925 43.7791 5.13925C43.4655 5.13925 43.1551 5.07834 42.8657 4.96002C42.5762 4.84171 42.3134 4.66832 42.0923 4.44982C41.8335 4.19003 41.6403 3.87416 41.5283 3.52761H37.9395C39.0986 4.18605 40.1467 5.01737 41.0464 5.99188C42.8414 7.9409 44.0269 10.3571 44.4609 12.9513H45.4248C45.5188 12.9493 45.6122 12.9658 45.6995 12.9999C45.7869 13.034 45.8664 13.085 45.9333 13.1499C46.0002 13.2147 46.0532 13.2921 46.0892 13.3774C46.1251 13.4628 46.1433 13.5544 46.1426 13.6467V16.8165C46.1433 16.9076 46.1256 16.9979 46.0906 17.0823C46.0556 17.1666 46.004 17.2433 45.9387 17.308C45.8734 17.3726 45.7957 17.4239 45.7102 17.4589C45.6246 17.494 45.5329 17.512 45.4402 17.512H42.2358C42.1429 17.512 42.0509 17.494 41.9651 17.459C41.8792 17.4241 41.8012 17.3729 41.7355 17.3083C41.6698 17.2437 41.6177 17.167 41.5822 17.0827C41.5466 16.9983 41.5283 16.9079 41.5283 16.8165V13.6467C41.5283 13.4623 41.6029 13.2854 41.7355 13.155C41.8682 13.0246 42.0482 12.9513 42.2358 12.9513H42.9741C42.5514 10.7247 41.5078 8.65724 39.9595 6.97961C38.5162 5.41266 36.649 4.28179 34.5762 3.71911V4.95376C34.5775 5.03071 34.5633 5.10716 34.5343 5.17864C34.5052 5.25012 34.462 5.3152 34.4072 5.37008C34.3523 5.42497 34.2868 5.46856 34.2146 5.49832C34.1424 5.52807 34.0649 5.54339 33.9866 5.54337H29.5876C29.51 5.54405 29.4331 5.52951 29.3612 5.50063C29.2894 5.47174 29.2241 5.42908 29.1692 5.37513C29.1143 5.32118 29.0709 5.25703 29.0415 5.18641C29.0121 5.1158 28.9974 5.04013 28.998 4.96384V3.71911C26.8707 4.29918 24.9632 5.48017 23.5122 7.11567C22.0357 8.77296 21.0357 10.7874 20.6155 12.9513H21.3384C21.4313 12.9513 21.5233 12.9693 21.6091 13.0042C21.695 13.0392 21.773 13.0904 21.8387 13.155C21.9044 13.2196 21.9565 13.2962 21.992 13.3806C22.0276 13.465 22.0459 13.5554 22.0459 13.6467V16.8165C22.0459 16.9079 22.0276 16.9983 21.992 17.0827C21.9565 17.167 21.9044 17.2437 21.8387 17.3083C21.773 17.3729 21.695 17.4241 21.6091 17.459C21.5233 17.494 21.4313 17.512 21.3384 17.512H18.1494C18.0556 17.5133 17.9625 17.4963 17.8755 17.462C17.7885 17.4276 17.7093 17.3766 17.6425 17.3119C17.5757 17.2472 17.5227 17.1701 17.4865 17.085C17.4503 17 17.4316 16.9087 17.4316 16.8165V13.6467C17.4316 13.5546 17.4503 13.4633 17.4865 13.3783C17.5227 13.2932 17.5757 13.2161 17.6425 13.1514C17.7093 13.0867 17.7885 13.0357 17.8755 13.0013C17.9625 12.967 18.0556 12.95 18.1494 12.9513H19.1287C19.5663 10.433 20.7057 8.08333 22.4202 6.16322C23.3384 5.11831 24.4242 4.22803 25.6348 3.52761H21.4871C21.37 3.85856 21.1771 4.15859 20.9231 4.40447C20.7023 4.62336 20.4395 4.79708 20.15 4.91558C19.8605 5.03408 19.5499 5.09502 19.2363 5.09487C18.6019 5.09263 17.9939 4.84455 17.5444 4.40447C17.3221 4.18717 17.1457 3.92883 17.0254 3.6443C16.905 3.35977 16.843 3.05465 16.843 2.7465C16.843 2.43835 16.905 2.13324 17.0254 1.8487C17.1457 1.56417 17.3221 1.30583 17.5444 1.08854C17.7655 0.870039 18.0283 0.696649 18.3178 0.578332C18.6073 0.460016 18.9177 0.399106 19.2312 0.399106C19.5447 0.399106 19.8551 0.460016 20.1446 0.578332C20.4341 0.696649 20.6969 0.870039 20.918 1.08854C21.18 1.34876 21.375 1.66664 21.4871 2.01579H28.998V0.579554C28.9974 0.503262 29.0121 0.4276 29.0415 0.356984C29.0709 0.286369 29.1143 0.222214 29.1692 0.168265C29.2241 0.114316 29.2894 0.0716535 29.3612 0.0427673C29.4331 0.0138811 29.51 -0.000649918 29.5876 2.2301e-05ZM38.2778 20.5306L35.9963 26.2654L27.583 26.1596L25.2554 20.5306C27.2549 17.003 29.2903 12.7245 30.3362 8.93994L31.4436 9.06088L31.4026 19.2002C31.1589 19.2871 30.9548 19.4568 30.8272 19.6786C30.6996 19.9004 30.6569 20.1597 30.7067 20.4098C30.7566 20.6599 30.8957 20.8842 31.099 21.0423C31.3023 21.2004 31.5564 21.2819 31.8155 21.272C32.0745 21.2621 32.3214 21.1616 32.5117 20.9885C32.702 20.8154 32.823 20.5812 32.853 20.328C32.883 20.0749 32.82 19.8196 32.6753 19.6082C32.5306 19.3968 32.3138 19.2431 32.064 19.175L32.0947 9.14151L33.3662 9.07096C34.2942 12.8556 36.3091 17.134 38.2778 20.5155V20.5306ZM35.7964 28.7247H27.624V27.1221H35.7964V28.7247ZM29.6697 36.5761H33.3252C34.1506 36.5761 34.1506 38.1534 33.3252 38.1534H29.6697C28.8442 38.1534 28.8391 36.5761 29.6697 36.5761Z" fill="#F05123"/>
</g>
<defs>
<clipPath id="clip0_25_695">
<rect width="63" height="39" fill="white"/>
</clipPath>
</defs>
</svg>
